<svg width="77" height="104" viewBox="0 0 77 104" fill="none" xmlns="http://www.w3.org/2000/svg">
<g filter="url(#filter0_d_10_21)">
<path d="M43.7316 91.9217C52.636 91.9217 59.8545 84.7032 59.8545 75.7987C59.8545 66.8943 52.636 59.6758 43.7316 59.6758C34.8271 59.6758 27.6086 66.8943 27.6086 75.7987C27.6086 84.7032 34.8271 91.9217 43.7316 91.9217Z" fill="#2F2E41"/>
</g>
<g filter="url(#filter1_d_10_21)">
<path d="M41.2826 88.4521H36.3845V97.2279H41.2826V88.4521Z" fill="#2F2E41"/>
</g>
<g filter="url(#filter2_d_10_21)">
<path d="M51.0788 88.4521H46.1807V97.2279H51.0788V88.4521Z" fill="#2F2E41"/>
</g>
<g filter="url(#filter3_d_10_21)">
<path d="M40.4663 98.8606C42.7206 98.8606 44.548 98.1753 44.548 97.33C44.548 96.4846 42.7206 95.7993 40.4663 95.7993C38.212 95.7993 36.3845 96.4846 36.3845 97.33C36.3845 98.1753 38.212 98.8606 40.4663 98.8606Z" fill="#2F2E41"/>
</g>
<g filter="url(#filter4_d_10_21)">
<path d="M50.2624 98.6565C52.5167 98.6565 54.3442 97.9712 54.3442 97.1259C54.3442 96.2805 52.5167 95.5952 50.2624 95.5952C48.0081 95.5952 46.1807 96.2805 46.1807 97.1259C46.1807 97.9712 48.0081 98.6565 50.2624 98.6565Z" fill="#2F2E41"/>
</g>
<g filter="url(#filter5_d_10_21)">
<path d="M44.1398 77.2273C47.1831 77.2273 49.6502 74.7602 49.6502 71.7169C49.6502 68.6736 47.1831 66.2065 44.1398 66.2065C41.0965 66.2065 38.6294 68.6736 38.6294 71.7169C38.6294 74.7602 41.0965 77.2273 44.1398 77.2273Z" fill="white"/>
</g>
<g filter="url(#filter6_d_10_21)">
<path d="M44.14 73.5535C45.1545 73.5535 45.9768 72.7311 45.9768 71.7167C45.9768 70.7022 45.1545 69.8799 44.14 69.8799C43.1256 69.8799 42.3032 70.7022 42.3032 71.7167C42.3032 72.7311 43.1256 73.5535 44.14 73.5535Z" fill="#3F3D56"/>
</g>
<g filter="url(#filter7_d_10_21)">
<path d="M28.0919 60.8046C26.79 54.9743 30.9515 49.083 37.3869 47.6461C43.8222 46.2091 50.0944 49.7706 51.3963 55.6009C52.6981 61.4312 48.4332 63.5816 41.9979 65.0185C35.5626 66.4554 29.3937 66.6349 28.0919 60.8046Z" fill="#CCCCCC"/>
</g>
<g filter="url(#filter8_d_10_21)">
<path d="M55.4877 18.1993C57.0772 14.0405 57.3075 10.2646 56.0019 9.76556C54.6963 9.26655 52.3493 12.2334 50.7598 16.3922C49.1702 20.551 48.94 24.3269 50.2455 24.8259C51.5511 25.3249 53.8981 22.3581 55.4877 18.1993Z" fill="#2F2E41"/>
</g>
<g filter="url(#filter9_d_10_21)">
<path d="M54.136 32.0532C55.5623 23.2637 49.5933 14.9822 40.8039 13.5558C32.0144 12.1295 23.7328 18.0985 22.3065 26.888C20.8802 35.6775 26.8492 43.959 35.6386 45.3853C44.4281 46.8117 52.7097 40.8427 54.136 32.0532Z" fill="#2F2E41"/>
</g>
<g filter="url(#filter10_d_10_21)">
<path d="M35.7724 42.124H30.8743V50.8998H35.7724V42.124Z" fill="#2F2E41"/>
</g>
<g filter="url(#filter11_d_10_21)">
<path d="M45.5685 42.124H40.6704V50.8998H45.5685V42.124Z" fill="#2F2E41"/>
</g>
<g filter="url(#filter12_d_10_21)">
<path d="M34.956 52.5325C37.2103 52.5325 39.0378 51.8472 39.0378 51.0018C39.0378 50.1565 37.2103 49.4712 34.956 49.4712C32.7017 49.4712 30.8743 50.1565 30.8743 51.0018C30.8743 51.8472 32.7017 52.5325 34.956 52.5325Z" fill="#2F2E41"/>
</g>
<g filter="url(#filter13_d_10_21)">
<path d="M44.7522 52.3284C47.0065 52.3284 48.8339 51.6431 48.8339 50.7978C48.8339 49.9524 47.0065 49.2671 44.7522 49.2671C42.4979 49.2671 40.6704 49.9524 40.6704 50.7978C40.6704 51.6431 42.4979 52.3284 44.7522 52.3284Z" fill="#2F2E41"/>
</g>
<g filter="url(#filter14_d_10_21)">
<path d="M38.7914 30.8971C41.8334 30.8077 44.227 28.2692 44.1376 25.2273C44.0482 22.1853 41.5097 19.7917 38.4677 19.8811C35.4257 19.9705 33.0322 22.509 33.1216 25.551C33.211 28.593 35.7495 30.9865 38.7914 30.8971Z" fill="white"/>
</g>
<g filter="url(#filter15_d_10_21)">
<path d="M38.6295 27.2258C39.644 27.2258 40.4663 26.4035 40.4663 25.389C40.4663 24.3746 39.644 23.5522 38.6295 23.5522C37.6151 23.5522 36.7927 24.3746 36.7927 25.389C36.7927 26.4035 37.6151 27.2258 38.6295 27.2258Z" fill="#3F3D56"/>
</g>
<g filter="url(#filter16_d_10_21)">
<path d="M22.5816 14.477C21.2798 8.64666 25.4413 2.7554 31.8766 1.31845C38.3119 -0.118509 44.5842 3.44301 45.886 9.27329C47.1879 15.1036 42.9229 17.2539 36.4876 18.6908C30.0523 20.1278 23.8835 20.3073 22.5816 14.477Z" fill="#FA814C"/>
</g>
<g filter="url(#filter17_d_10_21)">
<path d="M27.3452 25.4443C27.9441 24.1815 25.1686 21.6111 21.1459 19.7032C17.1232 17.7953 13.3766 17.2723 12.7776 18.5352C12.1787 19.798 14.9542 22.3684 18.9769 24.2764C22.9996 26.1843 26.7462 26.7072 27.3452 25.4443Z" fill="#2F2E41"/>
</g>
<g filter="url(#filter18_d_10_21)">
<path d="M30.3018 35.287C30.3018 36.865 34.3649 39.9811 38.8735 39.9811C43.3821 39.9811 47.6093 35.5385 47.6093 33.9605C47.6093 32.3825 43.382 34.2666 38.8735 34.2666C34.3649 34.2666 30.3018 33.709 30.3018 35.287Z" fill="white"/>
</g>
<g filter="url(#filter19_d_10_21)">
<path d="M65.5876 23.122L60.701 25.0173L53.8379 13.1286L69.0433 5.77267L68.2325 6.84219L69.4335 12.5318C69.4335 12.5318 70.6641 15.6082 72.2704 16.8049C73.372 17.6256 75.5011 18.1961 75.5011 18.1961L70.3815 20.6243L66.5774 21.4273L65.5876 23.122Z" fill="white"/>
<path d="M60.0022 16.3618L60.9643 16.3117C61.0724 15.6676 61.3581 15.0326 61.7809 14.4758C62.2037 13.9189 62.7469 13.4713 63.342 13.1894C63.9371 12.9075 64.5572 12.8041 65.1239 12.8922C65.6907 12.9803 66.2115 13.2727 66.5589 13.7011L67.3914 12.9982C66.9281 12.427 66.2552 11.9323 65.4995 11.8149C64.7439 11.6974 63.917 11.8353 63.1236 12.2111C62.3302 12.587 61.6059 13.1838 61.0421 13.9263C60.4784 14.6688 60.1462 15.503 60.0022 16.3618Z" fill="#E6E6E6"/>
<path d="M67.4683 13.1024L66.6557 13.8071C67.0594 14.276 67.2359 14.9143 67.1523 15.6037C67.0688 16.2932 66.6668 17.0242 66.1372 17.594L66.8626 18.1023C67.5687 17.3424 67.9818 16.5387 68.0932 15.6194C68.1388 15.2428 68.0084 14.7727 67.9406 14.4298C67.843 13.9358 67.786 13.4714 67.4683 13.1024Z" fill="#895757"/>
<path d="M63.5334 18.8534C63.1384 18.8786 62.7588 18.8346 62.4163 18.7238C62.0738 18.613 61.7752 18.4377 61.5374 18.2078C61.2996 17.9778 61.1274 17.6979 61.0305 17.3838C60.9336 17.0697 60.914 16.7277 60.9727 16.3773L59.97 16.4414C59.8451 17.1861 59.9869 17.8953 60.3753 18.4689C60.7637 19.0424 61.3792 19.4515 62.135 19.6384C62.8908 19.8254 64.5223 19.2283 64.5223 19.2283C64.5223 19.2283 65.7457 18.9195 65.8744 18.8535C66.1308 18.7222 66.5936 18.4392 66.813 18.1338L66.1048 17.6464C65.7695 17.9921 65.3629 18.281 64.9168 18.4904C64.4706 18.6998 63.9971 18.824 63.5334 18.8534Z" fill="#FF6363"/>
</g>
<g filter="url(#filter20_d_10_21)">
<path d="M8.40773 33.9646C12.867 34.5637 15.9985 34.9844 20.6474 33.8621C20.9702 33.7842 21.1543 33.7502 21.4707 33.6496C22.3852 33.3589 26.0824 29.5563 26.0824 29.5563L21.8437 24.1432L19.1073 21.548L17.605 18.7302C17.605 18.7302 11.1802 26.4905 5.91195 30.0418C4.43143 31.0398 1.99987 32.408 1.99987 32.408C1.99987 32.408 5.54546 33.5801 8.33474 33.9548L8.40773 33.9646Z" fill="#FFFDFD"/>
<path d="M18.9509 33.7744L12.446 25.9175C12.3986 25.8602 12.3257 25.8264 12.2433 25.8236C12.161 25.8208 12.076 25.8492 12.0071 25.9026C11.9381 25.9559 11.8908 26.0299 11.8756 26.1081C11.8604 26.1864 11.8786 26.2626 11.926 26.3199L13.7147 28.4804L14.2841 29.1681L15.1715 29.6994L15.6116 30.7714L18.4309 34.1767C18.4783 34.234 18.5512 34.2678 18.6335 34.2706C18.7159 34.2734 18.8009 34.245 18.8698 34.1917C18.9388 34.1383 18.9861 34.0644 19.0013 33.9861C19.0165 33.9079 18.9983 33.8317 18.9509 33.7744Z" fill="#E4E4E4"/>
<path d="M16.6238 32.2384L15.5058 30.6777L15.1715 29.6996L14.1362 29.1292L11.9281 26.5668C11.875 26.5046 11.8505 26.4237 11.8595 26.3401C11.8685 26.2566 11.9103 26.1768 11.9766 26.1167C12.0123 26.0851 12.0539 26.0605 12.0988 26.0442C12.1437 26.0279 12.1909 26.0204 12.2373 26.0221C12.2837 26.0237 12.3285 26.0343 12.3689 26.0533C12.4092 26.0724 12.4444 26.0994 12.4721 26.1327L14.8371 28.7216L16.0762 29.6424L16.2067 30.2701L16.8745 31.3364C16.9785 31.4623 16.9289 31.6281 16.9022 31.7947C16.8755 31.9613 16.7809 32.1166 16.6391 32.2265L16.6238 32.2384Z" fill="#FF6363"/>
<path d="M18.9822 32.8593C19.834 33.4281 20.6049 33.8756 20.6049 33.8756C20.6049 33.8756 19.5329 34.1378 18.1804 34.3301C17.1569 34.4756 15.966 34.5617 14.9961 34.5741C12.7498 34.6029 9.09652 34.0523 9.09652 34.0523C9.09652 34.0523 11.3097 32.9188 12.7449 32.247C13.3217 31.977 13.6512 31.8387 14.2262 31.5648C14.7298 31.3249 14.9546 31 15.5087 30.9359C16.1444 30.8624 16.4757 31.1239 17.0843 31.3861C17.6929 31.6483 18.4311 32.4913 18.9822 32.8593Z" fill="url(#paint0_linear_10_21)"/>
<path d="M22.8234 30.4431C22.8234 30.4431 22.6016 30.0725 22.4806 29.8703C22.2599 29.5015 21.8296 28.9787 21.8296 28.9787L19.0638 25.8284L17.898 24.6303L15.7691 22.1372C15.7165 22.0778 15.6394 22.043 15.5547 22.0403C15.47 22.0376 15.3847 22.0674 15.3176 22.123C15.2504 22.1786 15.2069 22.2556 15.1967 22.3369C15.1864 22.4182 15.2102 22.4973 15.2628 22.5567L17.2155 23.9549L17.4934 24.9149L17.9429 25.4949L21.3884 29.4716C21.3884 29.4716 21.6719 29.8595 21.8474 30.1121C22.0091 30.3448 22.0668 30.555 22.2104 30.7185C22.3184 30.8415 22.4054 30.9678 22.5131 30.9949C22.5921 31.0147 22.6981 31.0313 22.7757 30.975C22.8665 30.9091 22.8943 30.8763 22.9185 30.798C22.9496 30.6971 22.8774 30.5332 22.8234 30.4431Z" fill="#E4E4E4"/>
<path d="M20.9106 32.8578C20.8887 32.7356 20.4469 31.9393 20.2717 31.6857C19.888 31.1302 19.9415 31.1371 19.6767 30.758C19.2976 30.2151 18.4216 29.1115 17.4823 27.9531C17.311 27.7418 16.5031 27.4273 16.5031 27.4273C16.5031 27.4273 16.5289 27.0862 16.342 26.8153C16.1633 26.5562 15.7754 26.3714 15.6164 26.1784C15.3494 25.8544 15.5517 25.632 15.3298 25.364C14.7702 24.6884 14.2615 24.0425 14.2615 24.0425C14.2114 23.9811 14.1357 23.9431 14.0512 23.9371C13.9667 23.931 13.8803 23.9573 13.811 24.0101C13.7416 24.063 13.6951 24.1381 13.6815 24.219C13.668 24.2998 13.6886 24.3798 13.7388 24.4413L15.8824 26.608L16.5858 27.7159C16.5858 27.7159 18.3721 29.9479 19.2554 31.0763C19.4833 31.3675 19.5 31.5978 19.6825 31.9174C19.8499 32.2105 20.0614 32.6946 20.0614 32.6946C20.1116 32.756 20.2211 33.2336 20.4529 33.3308C20.5424 33.3684 20.6111 33.3706 20.7161 33.3215C20.8184 33.2738 20.9063 33.2018 20.9199 33.1211C20.9334 33.0403 20.9324 32.9801 20.9106 32.8578Z" fill="#E4E4E4"/>
<path d="M19.0038 26.8393L17.5178 24.9567L16.9435 23.7764L16.1762 23.3606L15.265 22.6186C15.2098 22.5583 15.1826 22.4782 15.1888 22.3944C15.195 22.3106 15.2342 22.2294 15.2984 22.1672C15.333 22.1345 15.3738 22.1084 15.4181 22.0906C15.4624 22.0729 15.5093 22.0638 15.5558 22.0639C15.6023 22.064 15.6473 22.0731 15.6883 22.0908C15.7293 22.1084 15.7653 22.1343 15.7941 22.1667L16.3505 22.7018L17.2914 23.2656L17.6395 23.9605L19.1315 25.9341C19.2396 26.0565 19.2885 26.2192 19.2673 26.3866C19.2462 26.554 19.1568 26.7123 19.0187 26.827L19.0038 26.8393Z" fill="#FF6363"/>
<path d="M19.1738 31.0815L17.682 29.1774L16.9972 28.4031L16.1137 27.6032L15.907 26.8625L15.7482 26.3918L14.8205 25.7767L13.7608 24.4504C13.7081 24.3879 13.6841 24.3068 13.6937 24.2233C13.7033 24.1399 13.7457 24.0603 13.8124 24.0007C13.8483 23.9694 13.8901 23.945 13.9351 23.9291C13.9801 23.9131 14.0273 23.9059 14.0738 23.9079C14.1202 23.9098 14.1649 23.9208 14.2051 23.9401C14.2453 23.9594 14.2803 23.9866 14.3078 24.0202L15.4988 25.4956L15.9819 25.8533L16.5228 26.0571L16.5324 26.7974L16.6629 27.425L17.4603 27.8587L19.3378 30.1821C19.4409 30.3088 19.4832 30.4733 19.4553 30.6397C19.4274 30.8061 19.3317 30.9608 19.1892 31.0697L19.1738 31.0815Z" fill="#FF6363"/>
</g>
<defs>
<filter id="filter0_d_10_21" x="24.6086" y="58.6758" width="38.2458" height="38.2458" filterUnits="userSpaceOnUse" color-interpolation-filters="sRGB">
<feFlood flood-opacity="0" result="BackgroundImageFix"/>
<feColorMatrix in="SourceAlpha" type="matrix" values="0 0 0 0 0 0 0 0 0 0 0 0 0 0 0 0 0 0 127 0" result="hardAlpha"/>
<feOffset dy="2"/>
<feGaussianBlur stdDeviation="1.5"/>
<feComposite in2="hardAlpha" operator="out"/>
<feColorMatrix type="matrix" values="0 0 0 0 0 0 0 0 0 0 0 0 0 0 0 0 0 0 0.1 0"/>
<feBlend mode="normal" in2="BackgroundImageFix" result="effect1_dropShadow_10_21"/>
<feBlend mode="normal" in="SourceGraphic" in2="effect1_dropShadow_10_21" result="shape"/>
</filter>
<filter id="filter1_d_10_21" x="33.3845" y="87.4521" width="10.8981" height="14.7759" filterUnits="userSpaceOnUse" color-interpolation-filters="sRGB">
<feFlood flood-opacity="0" result="BackgroundImageFix"/>
<feColorMatrix in="SourceAlpha" type="matrix" values="0 0 0 0 0 0 0 0 0 0 0 0 0 0 0 0 0 0 127 0" result="hardAlpha"/>
<feOffset dy="2"/>
<feGaussianBlur stdDeviation="1.5"/>
<feComposite in2="hardAlpha" operator="out"/>
<feColorMatrix type="matrix" values="0 0 0 0 0 0 0 0 0 0 0 0 0 0 0 0 0 0 0.1 0"/>
<feBlend mode="normal" in2="BackgroundImageFix" result="effect1_dropShadow_10_21"/>
<feBlend mode="normal" in="SourceGraphic" in2="effect1_dropShadow_10_21" result="shape"/>
</filter>
<filter id="filter2_d_10_21" x="43.1807" y="87.4521" width="10.8981" height="14.7759" filterUnits="userSpaceOnUse" color-interpolation-filters="sRGB">
<feFlood flood-opacity="0" result="BackgroundImageFix"/>
<feColorMatrix in="SourceAlpha" type="matrix" values="0 0 0 0 0 0 0 0 0 0 0 0 0 0 0 0 0 0 127 0" result="hardAlpha"/>
<feOffset dy="2"/>
<feGaussianBlur stdDeviation="1.5"/>
<feComposite in2="hardAlpha" operator="out"/>
<feColorMatrix type="matrix" values="0 0 0 0 0 0 0 0 0 0 0 0 0 0 0 0 0 0 0.1 0"/>
<feBlend mode="normal" in2="BackgroundImageFix" result="effect1_dropShadow_10_21"/>
<feBlend mode="normal" in="SourceGraphic" in2="effect1_dropShadow_10_21" result="shape"/>
</filter>
<filter id="filter3_d_10_21" x="33.3845" y="94.7993" width="14.1636" height="9.06128" filterUnits="userSpaceOnUse" color-interpolation-filters="sRGB">
<feFlood flood-opacity="0" result="BackgroundImageFix"/>
<feColorMatrix in="SourceAlpha" type="matrix" values="0 0 0 0 0 0 0 0 0 0 0 0 0 0 0 0 0 0 127 0" result="hardAlpha"/>
<feOffset dy="2"/>
<feGaussianBlur stdDeviation="1.5"/>
<feComposite in2="hardAlpha" operator="out"/>
<feColorMatrix type="matrix" values="0 0 0 0 0 0 0 0 0 0 0 0 0 0 0 0 0 0 0.1 0"/>
<feBlend mode="normal" in2="BackgroundImageFix" result="effect1_dropShadow_10_21"/>
<feBlend mode="normal" in="SourceGraphic" in2="effect1_dropShadow_10_21" result="shape"/>
</filter>
<filter id="filter4_d_10_21" x="43.1807" y="94.5952" width="14.1636" height="9.06128" filterUnits="userSpaceOnUse" color-interpolation-filters="sRGB">
<feFlood flood-opacity="0" result="BackgroundImageFix"/>
<feColorMatrix in="SourceAlpha" type="matrix" values="0 0 0 0 0 0 0 0 0 0 0 0 0 0 0 0 0 0 127 0" result="hardAlpha"/>
<feOffset dy="2"/>
<feGaussianBlur stdDeviation="1.5"/>
<feComposite in2="hardAlpha" operator="out"/>
<feColorMatrix type="matrix" values="0 0 0 0 0 0 0 0 0 0 0 0 0 0 0 0 0 0 0.1 0"/>
<feBlend mode="normal" in2="BackgroundImageFix" result="effect1_dropShadow_10_21"/>
<feBlend mode="normal" in="SourceGraphic" in2="effect1_dropShadow_10_21" result="shape"/>
</filter>
<filter id="filter5_d_10_21" x="35.6294" y="65.2065" width="17.0208" height="17.0208" filterUnits="userSpaceOnUse" color-interpolation-filters="sRGB">
<feFlood flood-opacity="0" result="BackgroundImageFix"/>
<feColorMatrix in="SourceAlpha" type="matrix" values="0 0 0 0 0 0 0 0 0 0 0 0 0 0 0 0 0 0 127 0" result="hardAlpha"/>
<feOffset dy="2"/>
<feGaussianBlur stdDeviation="1.5"/>
<feComposite in2="hardAlpha" operator="out"/>
<feColorMatrix type="matrix" values="0 0 0 0 0 0 0 0 0 0 0 0 0 0 0 0 0 0 0.1 0"/>
<feBlend mode="normal" in2="BackgroundImageFix" result="effect1_dropShadow_10_21"/>
<feBlend mode="normal" in="SourceGraphic" in2="effect1_dropShadow_10_21" result="shape"/>
</filter>
<filter id="filter6_d_10_21" x="39.3032" y="68.8799" width="9.67358" height="9.67358" filterUnits="userSpaceOnUse" color-interpolation-filters="sRGB">
<feFlood flood-opacity="0" result="BackgroundImageFix"/>
<feColorMatrix in="SourceAlpha" type="matrix" values="0 0 0 0 0 0 0 0 0 0 0 0 0 0 0 0 0 0 127 0" result="hardAlpha"/>
<feOffset dy="2"/>
<feGaussianBlur stdDeviation="1.5"/>
<feComposite in2="hardAlpha" operator="out"/>
<feColorMatrix type="matrix" values="0 0 0 0 0 0 0 0 0 0 0 0 0 0 0 0 0 0 0.1 0"/>
<feBlend mode="normal" in2="BackgroundImageFix" result="effect1_dropShadow_10_21"/>
<feBlend mode="normal" in="SourceGraphic" in2="effect1_dropShadow_10_21" result="shape"/>
</filter>
<filter id="filter7_d_10_21" x="24.8535" y="46.3276" width="29.7769" height="24.5339" filterUnits="userSpaceOnUse" color-interpolation-filters="sRGB">
<feFlood flood-opacity="0" result="BackgroundImageFix"/>
<feColorMatrix in="SourceAlpha" type="matrix" values="0 0 0 0 0 0 0 0 0 0 0 0 0 0 0 0 0 0 127 0" result="hardAlpha"/>
<feOffset dy="2"/>
<feGaussianBlur stdDeviation="1.5"/>
<feComposite in2="hardAlpha" operator="out"/>
<feColorMatrix type="matrix" values="0 0 0 0 0 0 0 0 0 0 0 0 0 0 0 0 0 0 0.1 0"/>
<feBlend mode="normal" in2="BackgroundImageFix" result="effect1_dropShadow_10_21"/>
<feBlend mode="normal" in="SourceGraphic" in2="effect1_dropShadow_10_21" result="shape"/>
</filter>
<filter id="filter8_d_10_21" x="46.399" y="8.71069" width="13.4493" height="21.1699" filterUnits="userSpaceOnUse" color-interpolation-filters="sRGB">
<feFlood flood-opacity="0" result="BackgroundImageFix"/>
<feColorMatrix in="SourceAlpha" type="matrix" values="0 0 0 0 0 0 0 0 0 0 0 0 0 0 0 0 0 0 127 0" result="hardAlpha"/>
<feOffset dy="2"/>
<feGaussianBlur stdDeviation="1.5"/>
<feComposite in2="hardAlpha" operator="out"/>
<feColorMatrix type="matrix" values="0 0 0 0 0 0 0 0 0 0 0 0 0 0 0 0 0 0 0.1 0"/>
<feBlend mode="normal" in2="BackgroundImageFix" result="effect1_dropShadow_10_21"/>
<feBlend mode="normal" in="SourceGraphic" in2="effect1_dropShadow_10_21" result="shape"/>
</filter>
<filter id="filter9_d_10_21" x="19.0958" y="12.3452" width="38.2507" height="38.2507" filterUnits="userSpaceOnUse" color-interpolation-filters="sRGB">
<feFlood flood-opacity="0" result="BackgroundImageFix"/>
<feColorMatrix in="SourceAlpha" type="matrix" values="0 0 0 0 0 0 0 0 0 0 0 0 0 0 0 0 0 0 127 0" result="hardAlpha"/>
<feOffset dy="2"/>
<feGaussianBlur stdDeviation="1.5"/>
<feComposite in2="hardAlpha" operator="out"/>
<feColorMatrix type="matrix" values="0 0 0 0 0 0 0 0 0 0 0 0 0 0 0 0 0 0 0.1 0"/>
<feBlend mode="normal" in2="BackgroundImageFix" result="effect1_dropShadow_10_21"/>
<feBlend mode="normal" in="SourceGraphic" in2="effect1_dropShadow_10_21" result="shape"/>
</filter>
<filter id="filter10_d_10_21" x="27.8743" y="41.124" width="10.8981" height="14.7759" filterUnits="userSpaceOnUse" color-interpolation-filters="sRGB">
<feFlood flood-opacity="0" result="BackgroundImageFix"/>
<feColorMatrix in="SourceAlpha" type="matrix" values="0 0 0 0 0 0 0 0 0 0 0 0 0 0 0 0 0 0 127 0" result="hardAlpha"/>
<feOffset dy="2"/>
<feGaussianBlur stdDeviation="1.5"/>
<feComposite in2="hardAlpha" operator="out"/>
<feColorMatrix type="matrix" values="0 0 0 0 0 0 0 0 0 0 0 0 0 0 0 0 0 0 0.1 0"/>
<feBlend mode="normal" in2="BackgroundImageFix" result="effect1_dropShadow_10_21"/>
<feBlend mode="normal" in="SourceGraphic" in2="effect1_dropShadow_10_21" result="shape"/>
</filter>
<filter id="filter11_d_10_21" x="37.6704" y="41.124" width="10.8981" height="14.7759" filterUnits="userSpaceOnUse" color-interpolation-filters="sRGB">
<feFlood flood-opacity="0" result="BackgroundImageFix"/>
<feColorMatrix in="SourceAlpha" type="matrix" values="0 0 0 0 0 0 0 0 0 0 0 0 0 0 0 0 0 0 127 0" result="hardAlpha"/>
<feOffset dy="2"/>
<feGaussianBlur stdDeviation="1.5"/>
<feComposite in2="hardAlpha" operator="out"/>
<feColorMatrix type="matrix" values="0 0 0 0 0 0 0 0 0 0 0 0 0 0 0 0 0 0 0.1 0"/>
<feBlend mode="normal" in2="BackgroundImageFix" result="effect1_dropShadow_10_21"/>
<feBlend mode="normal" in="SourceGraphic" in2="effect1_dropShadow_10_21" result="shape"/>
</filter>
<filter id="filter12_d_10_21" x="27.8743" y="48.4712" width="14.1636" height="9.06128" filterUnits="userSpaceOnUse" color-interpolation-filters="sRGB">
<feFlood flood-opacity="0" result="BackgroundImageFix"/>
<feColorMatrix in="SourceAlpha" type="matrix" values="0 0 0 0 0 0 0 0 0 0 0 0 0 0 0 0 0 0 127 0" result="hardAlpha"/>
<feOffset dy="2"/>
<feGaussianBlur stdDeviation="1.5"/>
<feComposite in2="hardAlpha" operator="out"/>
<feColorMatrix type="matrix" values="0 0 0 0 0 0 0 0 0 0 0 0 0 0 0 0 0 0 0.1 0"/>
<feBlend mode="normal" in2="BackgroundImageFix" result="effect1_dropShadow_10_21"/>
<feBlend mode="normal" in="SourceGraphic" in2="effect1_dropShadow_10_21" result="shape"/>
</filter>
<filter id="filter13_d_10_21" x="37.6704" y="48.2671" width="14.1636" height="9.06128" filterUnits="userSpaceOnUse" color-interpolation-filters="sRGB">
<feFlood flood-opacity="0" result="BackgroundImageFix"/>
<feColorMatrix in="SourceAlpha" type="matrix" values="0 0 0 0 0 0 0 0 0 0 0 0 0 0 0 0 0 0 127 0" result="hardAlpha"/>
<feOffset dy="2"/>
<feGaussianBlur stdDeviation="1.5"/>
<feComposite in2="hardAlpha" operator="out"/>
<feColorMatrix type="matrix" values="0 0 0 0 0 0 0 0 0 0 0 0 0 0 0 0 0 0 0.1 0"/>
<feBlend mode="normal" in2="BackgroundImageFix" result="effect1_dropShadow_10_21"/>
<feBlend mode="normal" in="SourceGraphic" in2="effect1_dropShadow_10_21" result="shape"/>
</filter>
<filter id="filter14_d_10_21" x="30.1191" y="18.8787" width="17.0209" height="17.0208" filterUnits="userSpaceOnUse" color-interpolation-filters="sRGB">
<feFlood flood-opacity="0" result="BackgroundImageFix"/>
<feColorMatrix in="SourceAlpha" type="matrix" values="0 0 0 0 0 0 0 0 0 0 0 0 0 0 0 0 0 0 127 0" result="hardAlpha"/>
<feOffset dy="2"/>
<feGaussianBlur stdDeviation="1.5"/>
<feComposite in2="hardAlpha" operator="out"/>
<feColorMatrix type="matrix" values="0 0 0 0 0 0 0 0 0 0 0 0 0 0 0 0 0 0 0.1 0"/>
<feBlend mode="normal" in2="BackgroundImageFix" result="effect1_dropShadow_10_21"/>
<feBlend mode="normal" in="SourceGraphic" in2="effect1_dropShadow_10_21" result="shape"/>
</filter>
<filter id="filter15_d_10_21" x="33.7927" y="22.5522" width="9.67358" height="9.67358" filterUnits="userSpaceOnUse" color-interpolation-filters="sRGB">
<feFlood flood-opacity="0" result="BackgroundImageFix"/>
<feColorMatrix in="SourceAlpha" type="matrix" values="0 0 0 0 0 0 0 0 0 0 0 0 0 0 0 0 0 0 127 0" result="hardAlpha"/>
<feOffset dy="2"/>
<feGaussianBlur stdDeviation="1.5"/>
<feComposite in2="hardAlpha" operator="out"/>
<feColorMatrix type="matrix" values="0 0 0 0 0 0 0 0 0 0 0 0 0 0 0 0 0 0 0.1 0"/>
<feBlend mode="normal" in2="BackgroundImageFix" result="effect1_dropShadow_10_21"/>
<feBlend mode="normal" in="SourceGraphic" in2="effect1_dropShadow_10_21" result="shape"/>
</filter>
<filter id="filter16_d_10_21" x="19.3433" y="0" width="29.7769" height="24.5339" filterUnits="userSpaceOnUse" color-interpolation-filters="sRGB">
<feFlood flood-opacity="0" result="BackgroundImageFix"/>
<feColorMatrix in="SourceAlpha" type="matrix" values="0 0 0 0 0 0 0 0 0 0 0 0 0 0 0 0 0 0 127 0" result="hardAlpha"/>
<feOffset dy="2"/>
<feGaussianBlur stdDeviation="1.5"/>
<feComposite in2="hardAlpha" operator="out"/>
<feColorMatrix type="matrix" values="0 0 0 0 0 0 0 0 0 0 0 0 0 0 0 0 0 0 0.1 0"/>
<feBlend mode="normal" in2="BackgroundImageFix" result="effect1_dropShadow_10_21"/>
<feBlend mode="normal" in="SourceGraphic" in2="effect1_dropShadow_10_21" result="shape"/>
</filter>
<filter id="filter17_d_10_21" x="9.69629" y="16.8464" width="20.7301" height="14.2866" filterUnits="userSpaceOnUse" color-interpolation-filters="sRGB">
<feFlood flood-opacity="0" result="BackgroundImageFix"/>
<feColorMatrix in="SourceAlpha" type="matrix" values="0 0 0 0 0 0 0 0 0 0 0 0 0 0 0 0 0 0 127 0" result="hardAlpha"/>
<feOffset dy="2"/>
<feGaussianBlur stdDeviation="1.5"/>
<feComposite in2="hardAlpha" operator="out"/>
<feColorMatrix type="matrix" values="0 0 0 0 0 0 0 0 0 0 0 0 0 0 0 0 0 0 0.1 0"/>
<feBlend mode="normal" in2="BackgroundImageFix" result="effect1_dropShadow_10_21"/>
<feBlend mode="normal" in="SourceGraphic" in2="effect1_dropShadow_10_21" result="shape"/>
</filter>
<filter id="filter18_d_10_21" x="27.3018" y="32.3306" width="23.3076" height="12.6504" filterUnits="userSpaceOnUse" color-interpolation-filters="sRGB">
<feFlood flood-opacity="0" result="BackgroundImageFix"/>
<feColorMatrix in="SourceAlpha" type="matrix" values="0 0 0 0 0 0 0 0 0 0 0 0 0 0 0 0 0 0 127 0" result="hardAlpha"/>
<feOffset dy="2"/>
<feGaussianBlur stdDeviation="1.5"/>
<feComposite in2="hardAlpha" operator="out"/>
<feColorMatrix type="matrix" values="0 0 0 0 0 0 0 0 0 0 0 0 0 0 0 0 0 0 0.1 0"/>
<feBlend mode="normal" in2="BackgroundImageFix" result="effect1_dropShadow_10_21"/>
<feBlend mode="normal" in="SourceGraphic" in2="effect1_dropShadow_10_21" result="shape"/>
</filter>
<filter id="filter19_d_10_21" x="51.7565" y="4.58305" width="25.7352" height="23.3865" filterUnits="userSpaceOnUse" color-interpolation-filters="sRGB">
<feFlood flood-opacity="0" result="BackgroundImageFix"/>
<feColorMatrix in="SourceAlpha" type="matrix" values="0 0 0 0 0 0 0 0 0 0 0 0 0 0 0 0 0 0 127 0" result="hardAlpha"/>
<feOffset dy="0.829023"/>
<feGaussianBlur stdDeviation="0.621767"/>
<feComposite in2="hardAlpha" operator="out"/>
<feColorMatrix type="matrix" values="0 0 0 0 0 0 0 0 0 0 0 0 0 0 0 0 0 0 0.15 0"/>
<feBlend mode="normal" in2="BackgroundImageFix" result="effect1_dropShadow_10_21"/>
<feBlend mode="normal" in="SourceGraphic" in2="effect1_dropShadow_10_21" result="shape"/>
</filter>
<filter id="filter20_d_10_21" x="0.823243" y="17.6053" width="27.4148" height="27.2715" filterUnits="userSpaceOnUse" color-interpolation-filters="sRGB">
<feFlood flood-opacity="0" result="BackgroundImageFix"/>
<feColorMatrix in="SourceAlpha" type="matrix" values="0 0 0 0 0 0 0 0 0 0 0 0 0 0 0 0 0 0 127 0" result="hardAlpha"/>
<feOffset dy="0.784423"/>
<feGaussianBlur stdDeviation="0.588318"/>
<feComposite in2="hardAlpha" operator="out"/>
<feColorMatrix type="matrix" values="0 0 0 0 0 0 0 0 0 0 0 0 0 0 0 0 0 0 0.15 0"/>
<feBlend mode="normal" in2="BackgroundImageFix" result="effect1_dropShadow_10_21"/>
<feBlend mode="normal" in="SourceGraphic" in2="effect1_dropShadow_10_21" result="shape"/>
</filter>
<linearGradient id="paint0_linear_10_21" x1="17.8604" y1="31.0385" x2="17.5883" y2="36.7938" gradientUnits="userSpaceOnUse">
<stop stop-color="#C4C4C4"/>
<stop offset="1" stop-color="white"/>
</linearGradient>
</defs>
</svg>
