<svg width="77" height="52" viewBox="0 0 77 52" fill="none" xmlns="http://www.w3.org/2000/svg">
<g filter="url(#filter0_d_10_20)">
<path d="M34.1428 20.8794C30.6784 19.2363 28.288 17.0226 28.8039 15.935C29.3197 14.8474 32.5463 15.2977 36.0108 16.9409C39.4752 18.584 41.8655 20.7977 41.3497 21.8853C40.8339 22.9729 37.6072 22.5225 34.1428 20.8794Z" fill="#2F2E41"/>
</g>
<g filter="url(#filter1_d_10_20)">
<path d="M67.3701 23.3799C63.7942 24.7638 60.5432 24.9757 60.1087 23.8531C59.6742 22.7305 62.2209 20.6986 65.7968 19.3147C69.3727 17.9307 72.6237 17.7189 73.0581 18.8414C73.4926 19.964 70.946 21.996 67.3701 23.3799Z" fill="#2F2E41"/>
</g>
<g filter="url(#filter2_d_10_20)">
<path d="M50.7162 39.2386C43.0475 39.2386 36.8308 33.0219 36.8308 25.3532C36.8308 17.6845 43.0475 11.4678 50.7162 11.4678C58.3849 11.4678 64.6016 17.6845 64.6016 25.3532C64.6016 33.0219 58.3849 39.2386 50.7162 39.2386Z" fill="#2F2E41"/>
</g>
<g filter="url(#filter3_d_10_20)">
<path d="M59.7773 35.7587L61.8413 32.0798L68.4327 35.7779L66.3687 39.4568L59.7773 35.7587Z" fill="#2F2E41"/>
</g>
<g filter="url(#filter4_d_10_20)">
<path d="M50.0963 38.39L53.9854 36.7561L56.9127 43.724L53.0236 45.3579L50.0963 38.39Z" fill="#2F2E41"/>
</g>
<g filter="url(#filter5_d_10_20)">
<path d="M67.6155 39.4147C66.6006 41.0698 65.2747 42.103 64.6541 41.7224C64.0334 41.3418 64.353 39.6916 65.3679 38.0365C66.3828 36.3815 67.7087 35.3483 68.3293 35.7289C68.95 36.1095 68.6304 37.7597 67.6155 39.4147Z" fill="#2F2E41"/>
</g>
<g filter="url(#filter6_d_10_20)">
<path d="M54.1484 46.22C52.3585 46.9719 50.6789 47.0374 50.3969 46.3662C50.1149 45.695 51.3374 44.5412 53.1273 43.7893C54.9172 43.0373 56.5968 42.9719 56.8787 43.6431C57.1607 44.3143 55.9383 45.468 54.1484 46.22Z" fill="#2F2E41"/>
</g>
<g filter="url(#filter7_d_10_20)">
<path d="M46.3564 7.89883C47.5963 2.90565 53.0692 -0.0327305 58.5806 1.33578C64.0919 2.70428 67.5546 7.86148 66.3148 12.8547C65.0749 17.8478 60.9615 17.864 55.4501 16.4954C49.9388 15.1269 45.1166 12.892 46.3564 7.89883Z" fill="#FA814C"/>
</g>
<g filter="url(#filter8_d_10_20)">
<path d="M50.0877 27.8471C47.5309 27.8471 45.4583 25.7745 45.4583 23.2178C45.4583 20.661 47.5309 18.5884 50.0877 18.5884C52.6444 18.5884 54.717 20.661 54.717 23.2178C54.717 25.7745 52.6444 27.8471 50.0877 27.8471Z" fill="white"/>
</g>
<g filter="url(#filter9_d_10_20)">
<path d="M48.5326 26.889C47.6803 26.889 46.9894 26.1981 46.9894 25.3459C46.9894 24.4936 47.6803 23.8027 48.5326 23.8027C49.3848 23.8027 50.0757 24.4936 50.0757 25.3459C50.0757 26.1981 49.3848 26.889 48.5326 26.889Z" fill="#3F3D56"/>
</g>
<g filter="url(#filter10_d_10_20)">
<path d="M56.0045 30.7505C56.0771 31.1493 56.0705 31.5584 55.9849 31.9546C55.8994 32.3507 55.7367 32.7262 55.5061 33.0595C55.2754 33.3927 54.9814 33.6773 54.6408 33.897C54.3002 34.1166 53.9197 34.2671 53.5209 34.3396C53.1222 34.4122 52.7131 34.4056 52.3169 34.32C51.9207 34.2345 51.5453 34.0718 51.212 33.8412C50.8787 33.6105 50.5941 33.3165 50.3745 32.9759C50.1548 32.6353 50.0044 32.2548 49.9318 31.856V31.856L49.9307 31.8501C49.6271 30.1728 50.9239 29.5793 52.6011 29.2757C54.2783 28.9721 55.7009 29.0733 56.0045 30.7505Z" fill="white"/>
</g>
<g filter="url(#filter11_d_10_20)">
<path d="M14.4779 16.8412L5.45687 18.0179L2.99993 34.024L11.0912 32.9091L19.5482 33.0996L32.5 30.5002L33 16.5L21.8371 18.3868L14.4779 16.8412Z" fill="white"/>
<path d="M13.3842 25.6855L9.03336 25.1183L8.83764 28.0224L8.23573 31.4711L11.0755 31.3164L13.7668 31.5957L13.8447 28.1352L13.3842 25.6855Z" fill="#895757"/>
<path d="M20.0729 23.11L14.8893 23.1897L14.8274 25.9389L14.7052 31.3635L19.8788 31.7256L20.6453 31.4973L20.0066 26.0555L20.0729 23.11Z" fill="#E6E6E6"/>
<path d="M25.9823 20.4381L21.6448 22.0158L21.5553 25.9922L21.7984 31.8356L26.6578 30.6013L26.7402 26.944L26.2476 24.1087L25.9823 20.4381Z" fill="#FF6363"/>
<path d="M8.7983 21.0387L7.7417 26.5159L7.11643 32.4695L11.4012 31.9521L19.8362 32.535L29.5642 30.2246" stroke="black" stroke-width="0.0701489"/>
</g>
<defs>
<filter id="filter0_d_10_20" x="25.7339" y="14.3418" width="18.6858" height="13.1365" filterUnits="userSpaceOnUse" color-interpolation-filters="sRGB">
<feFlood flood-opacity="0" result="BackgroundImageFix"/>
<feColorMatrix in="SourceAlpha" type="matrix" values="0 0 0 0 0 0 0 0 0 0 0 0 0 0 0 0 0 0 127 0" result="hardAlpha"/>
<feOffset dy="2"/>
<feGaussianBlur stdDeviation="1.5"/>
<feComposite in2="hardAlpha" operator="out"/>
<feColorMatrix type="matrix" values="0 0 0 0 0 0 0 0 0 0 0 0 0 0 0 0 0 0 0.1 0"/>
<feBlend mode="normal" in2="BackgroundImageFix" result="effect1_dropShadow_10_20"/>
<feBlend mode="normal" in="SourceGraphic" in2="effect1_dropShadow_10_20" result="shape"/>
</filter>
<filter id="filter1_d_10_20" x="57.0604" y="17.1206" width="19.046" height="12.4534" filterUnits="userSpaceOnUse" color-interpolation-filters="sRGB">
<feFlood flood-opacity="0" result="BackgroundImageFix"/>
<feColorMatrix in="SourceAlpha" type="matrix" values="0 0 0 0 0 0 0 0 0 0 0 0 0 0 0 0 0 0 127 0" result="hardAlpha"/>
<feOffset dy="2"/>
<feGaussianBlur stdDeviation="1.5"/>
<feComposite in2="hardAlpha" operator="out"/>
<feColorMatrix type="matrix" values="0 0 0 0 0 0 0 0 0 0 0 0 0 0 0 0 0 0 0.1 0"/>
<feBlend mode="normal" in2="BackgroundImageFix" result="effect1_dropShadow_10_20"/>
<feBlend mode="normal" in="SourceGraphic" in2="effect1_dropShadow_10_20" result="shape"/>
</filter>
<filter id="filter2_d_10_20" x="33.8308" y="10.4678" width="33.7708" height="33.7708" filterUnits="userSpaceOnUse" color-interpolation-filters="sRGB">
<feFlood flood-opacity="0" result="BackgroundImageFix"/>
<feColorMatrix in="SourceAlpha" type="matrix" values="0 0 0 0 0 0 0 0 0 0 0 0 0 0 0 0 0 0 127 0" result="hardAlpha"/>
<feOffset dy="2"/>
<feGaussianBlur stdDeviation="1.5"/>
<feComposite in2="hardAlpha" operator="out"/>
<feColorMatrix type="matrix" values="0 0 0 0 0 0 0 0 0 0 0 0 0 0 0 0 0 0 0.1 0"/>
<feBlend mode="normal" in2="BackgroundImageFix" result="effect1_dropShadow_10_20"/>
<feBlend mode="normal" in="SourceGraphic" in2="effect1_dropShadow_10_20" result="shape"/>
</filter>
<filter id="filter3_d_10_20" x="56.7773" y="31.0798" width="14.6553" height="13.377" filterUnits="userSpaceOnUse" color-interpolation-filters="sRGB">
<feFlood flood-opacity="0" result="BackgroundImageFix"/>
<feColorMatrix in="SourceAlpha" type="matrix" values="0 0 0 0 0 0 0 0 0 0 0 0 0 0 0 0 0 0 127 0" result="hardAlpha"/>
<feOffset dy="2"/>
<feGaussianBlur stdDeviation="1.5"/>
<feComposite in2="hardAlpha" operator="out"/>
<feColorMatrix type="matrix" values="0 0 0 0 0 0 0 0 0 0 0 0 0 0 0 0 0 0 0.1 0"/>
<feBlend mode="normal" in2="BackgroundImageFix" result="effect1_dropShadow_10_20"/>
<feBlend mode="normal" in="SourceGraphic" in2="effect1_dropShadow_10_20" result="shape"/>
</filter>
<filter id="filter4_d_10_20" x="47.0963" y="35.7561" width="12.8164" height="14.6018" filterUnits="userSpaceOnUse" color-interpolation-filters="sRGB">
<feFlood flood-opacity="0" result="BackgroundImageFix"/>
<feColorMatrix in="SourceAlpha" type="matrix" values="0 0 0 0 0 0 0 0 0 0 0 0 0 0 0 0 0 0 127 0" result="hardAlpha"/>
<feOffset dy="2"/>
<feGaussianBlur stdDeviation="1.5"/>
<feComposite in2="hardAlpha" operator="out"/>
<feColorMatrix type="matrix" values="0 0 0 0 0 0 0 0 0 0 0 0 0 0 0 0 0 0 0.1 0"/>
<feBlend mode="normal" in2="BackgroundImageFix" result="effect1_dropShadow_10_20"/>
<feBlend mode="normal" in="SourceGraphic" in2="effect1_dropShadow_10_20" result="shape"/>
</filter>
<filter id="filter5_d_10_20" x="61.3374" y="34.6499" width="10.3086" height="12.1514" filterUnits="userSpaceOnUse" color-interpolation-filters="sRGB">
<feFlood flood-opacity="0" result="BackgroundImageFix"/>
<feColorMatrix in="SourceAlpha" type="matrix" values="0 0 0 0 0 0 0 0 0 0 0 0 0 0 0 0 0 0 127 0" result="hardAlpha"/>
<feOffset dy="2"/>
<feGaussianBlur stdDeviation="1.5"/>
<feComposite in2="hardAlpha" operator="out"/>
<feColorMatrix type="matrix" values="0 0 0 0 0 0 0 0 0 0 0 0 0 0 0 0 0 0 0.1 0"/>
<feBlend mode="normal" in2="BackgroundImageFix" result="effect1_dropShadow_10_20"/>
<feBlend mode="normal" in="SourceGraphic" in2="effect1_dropShadow_10_20" result="shape"/>
</filter>
<filter id="filter6_d_10_20" x="47.3564" y="42.1794" width="12.5627" height="9.65039" filterUnits="userSpaceOnUse" color-interpolation-filters="sRGB">
<feFlood flood-opacity="0" result="BackgroundImageFix"/>
<feColorMatrix in="SourceAlpha" type="matrix" values="0 0 0 0 0 0 0 0 0 0 0 0 0 0 0 0 0 0 127 0" result="hardAlpha"/>
<feOffset dy="2"/>
<feGaussianBlur stdDeviation="1.5"/>
<feComposite in2="hardAlpha" operator="out"/>
<feColorMatrix type="matrix" values="0 0 0 0 0 0 0 0 0 0 0 0 0 0 0 0 0 0 0.1 0"/>
<feBlend mode="normal" in2="BackgroundImageFix" result="effect1_dropShadow_10_20"/>
<feBlend mode="normal" in="SourceGraphic" in2="effect1_dropShadow_10_20" result="shape"/>
</filter>
<filter id="filter7_d_10_20" x="43.16" y="0" width="26.4064" height="22.27" filterUnits="userSpaceOnUse" color-interpolation-filters="sRGB">
<feFlood flood-opacity="0" result="BackgroundImageFix"/>
<feColorMatrix in="SourceAlpha" type="matrix" values="0 0 0 0 0 0 0 0 0 0 0 0 0 0 0 0 0 0 127 0" result="hardAlpha"/>
<feOffset dy="2"/>
<feGaussianBlur stdDeviation="1.5"/>
<feComposite in2="hardAlpha" operator="out"/>
<feColorMatrix type="matrix" values="0 0 0 0 0 0 0 0 0 0 0 0 0 0 0 0 0 0 0.1 0"/>
<feBlend mode="normal" in2="BackgroundImageFix" result="effect1_dropShadow_10_20"/>
<feBlend mode="normal" in="SourceGraphic" in2="effect1_dropShadow_10_20" result="shape"/>
</filter>
<filter id="filter8_d_10_20" x="42.4583" y="17.5884" width="15.2588" height="15.2588" filterUnits="userSpaceOnUse" color-interpolation-filters="sRGB">
<feFlood flood-opacity="0" result="BackgroundImageFix"/>
<feColorMatrix in="SourceAlpha" type="matrix" values="0 0 0 0 0 0 0 0 0 0 0 0 0 0 0 0 0 0 127 0" result="hardAlpha"/>
<feOffset dy="2"/>
<feGaussianBlur stdDeviation="1.5"/>
<feComposite in2="hardAlpha" operator="out"/>
<feColorMatrix type="matrix" values="0 0 0 0 0 0 0 0 0 0 0 0 0 0 0 0 0 0 0.1 0"/>
<feBlend mode="normal" in2="BackgroundImageFix" result="effect1_dropShadow_10_20"/>
<feBlend mode="normal" in="SourceGraphic" in2="effect1_dropShadow_10_20" result="shape"/>
</filter>
<filter id="filter9_d_10_20" x="43.9894" y="22.8027" width="9.0863" height="9.08618" filterUnits="userSpaceOnUse" color-interpolation-filters="sRGB">
<feFlood flood-opacity="0" result="BackgroundImageFix"/>
<feColorMatrix in="SourceAlpha" type="matrix" values="0 0 0 0 0 0 0 0 0 0 0 0 0 0 0 0 0 0 127 0" result="hardAlpha"/>
<feOffset dy="2"/>
<feGaussianBlur stdDeviation="1.5"/>
<feComposite in2="hardAlpha" operator="out"/>
<feColorMatrix type="matrix" values="0 0 0 0 0 0 0 0 0 0 0 0 0 0 0 0 0 0 0.1 0"/>
<feBlend mode="normal" in2="BackgroundImageFix" result="effect1_dropShadow_10_20"/>
<feBlend mode="normal" in="SourceGraphic" in2="effect1_dropShadow_10_20" result="shape"/>
</filter>
<filter id="filter10_d_10_20" x="46.8865" y="28.1414" width="12.168" height="11.2483" filterUnits="userSpaceOnUse" color-interpolation-filters="sRGB">
<feFlood flood-opacity="0" result="BackgroundImageFix"/>
<feColorMatrix in="SourceAlpha" type="matrix" values="0 0 0 0 0 0 0 0 0 0 0 0 0 0 0 0 0 0 127 0" result="hardAlpha"/>
<feOffset dy="2"/>
<feGaussianBlur stdDeviation="1.5"/>
<feComposite in2="hardAlpha" operator="out"/>
<feColorMatrix type="matrix" values="0 0 0 0 0 0 0 0 0 0 0 0 0 0 0 0 0 0 0.1 0"/>
<feBlend mode="normal" in2="BackgroundImageFix" result="effect1_dropShadow_10_20"/>
<feBlend mode="normal" in="SourceGraphic" in2="effect1_dropShadow_10_20" result="shape"/>
</filter>
<filter id="filter11_d_10_20" x="-0.00012207" y="14" width="38.0342" height="27.0352" filterUnits="userSpaceOnUse" color-interpolation-filters="sRGB">
<feFlood flood-opacity="0" result="BackgroundImageFix"/>
<feColorMatrix in="SourceAlpha" type="matrix" values="0 0 0 0 0 0 0 0 0 0 0 0 0 0 0 0 0 0 127 0" result="hardAlpha"/>
<feOffset dy="2"/>
<feGaussianBlur stdDeviation="1.5"/>
<feComposite in2="hardAlpha" operator="out"/>
<feColorMatrix type="matrix" values="0 0 0 0 0 0 0 0 0 0 0 0 0 0 0 0 0 0 0.1 0"/>
<feBlend mode="normal" in2="BackgroundImageFix" result="effect1_dropShadow_10_20"/>
<feBlend mode="normal" in="SourceGraphic" in2="effect1_dropShadow_10_20" result="shape"/>
</filter>
</defs>
</svg>
