<svg preserveAspectRatio="none" width="1296" height="1079" viewBox="0 0 1296 1079" fill="none" xmlns="http://www.w3.org/2000/svg">
<path fill-rule="evenodd" clip-rule="evenodd" d="M0 0H107.917C215.833 0 431.667 4.66231e-06 647.5 45.5879C863.333 91.6647 1079.17 182.107 1187.08 228.184L1295 273.772V351.993V690.297L1223.06 757.792C1151.11 825.794 1007.22 960.025 863.333 980.666C781.645 991.953 699.956 966.63 618.267 941.306C556.067 922.024 493.867 902.741 431.667 899.621C287.778 892.91 143.889 973.955 71.9444 1014.48L0 1055V690.297V351.993V0Z" fill="#FBFBFB"/>
<path d="M1295.16 519.121C1295.25 827.741 1294.94 816.758 1295.02 1079C1260 978.261 1190.6 939.586 1108.75 891.297C1024.33 841.493 898.952 796.932 817.193 763.656C735.433 730.38 695.668 708.416 615.152 674.629C512.541 631.57 505.127 519.104 505.126 457.968C505.125 393.078 518.278 300.51 541.129 265.443C599.139 176.422 725.983 105.774 790.174 80.4314C900.194 36.9949 961.419 27.5704 1057.22 15.0107C1171.75 -0.00270163 1170.59 0.0372569 1295 -2.73145e-05C1295.03 88.4865 1288.97 232.014 1295.16 519.121Z" fill="black" fill-opacity="0.02"/>
</svg>
