<svg width="321" height="420" viewBox="0 0 321 420" fill="none" xmlns="http://www.w3.org/2000/svg">
<g filter="url(#filter0_d_9_104)">
<path d="M43.7316 358.922C52.636 358.922 59.8545 351.703 59.8545 342.799C59.8545 333.894 52.636 326.676 43.7316 326.676C34.8271 326.676 27.6086 333.894 27.6086 342.799C27.6086 351.703 34.8271 358.922 43.7316 358.922Z" fill="#2F2E41"/>
</g>
<g filter="url(#filter1_d_9_104)">
<path d="M41.2826 355.452H36.3845V364.228H41.2826V355.452Z" fill="#2F2E41"/>
</g>
<g filter="url(#filter2_d_9_104)">
<path d="M51.0788 355.452H46.1807V364.228H51.0788V355.452Z" fill="#2F2E41"/>
</g>
<g filter="url(#filter3_d_9_104)">
<path d="M40.4663 365.861C42.7206 365.861 44.548 365.175 44.548 364.33C44.548 363.485 42.7206 362.799 40.4663 362.799C38.212 362.799 36.3845 363.485 36.3845 364.33C36.3845 365.175 38.212 365.861 40.4663 365.861Z" fill="#2F2E41"/>
</g>
<g filter="url(#filter4_d_9_104)">
<path d="M50.2624 365.657C52.5167 365.657 54.3442 364.971 54.3442 364.126C54.3442 363.281 52.5167 362.595 50.2624 362.595C48.0081 362.595 46.1807 363.281 46.1807 364.126C46.1807 364.971 48.0081 365.657 50.2624 365.657Z" fill="#2F2E41"/>
</g>
<g filter="url(#filter5_d_9_104)">
<path d="M44.1398 344.227C47.1831 344.227 49.6502 341.76 49.6502 338.717C49.6502 335.674 47.1831 333.207 44.1398 333.207C41.0965 333.207 38.6294 335.674 38.6294 338.717C38.6294 341.76 41.0965 344.227 44.1398 344.227Z" fill="white"/>
</g>
<g filter="url(#filter6_d_9_104)">
<path d="M44.14 340.553C45.1545 340.553 45.9768 339.731 45.9768 338.717C45.9768 337.702 45.1545 336.88 44.14 336.88C43.1256 336.88 42.3032 337.702 42.3032 338.717C42.3032 339.731 43.1256 340.553 44.14 340.553Z" fill="#3F3D56"/>
</g>
<g filter="url(#filter7_d_9_104)">
<path d="M28.0919 327.805C26.79 321.974 30.9515 316.083 37.3869 314.646C43.8222 313.209 50.0944 316.771 51.3963 322.601C52.6981 328.431 48.4332 330.582 41.9979 332.019C35.5626 333.455 29.3937 333.635 28.0919 327.805Z" fill="#CCCCCC"/>
</g>
<g filter="url(#filter8_d_9_104)">
<path d="M55.4877 285.199C57.0772 281.04 57.3075 277.265 56.0019 276.766C54.6963 276.267 52.3493 279.233 50.7598 283.392C49.1702 287.551 48.94 291.327 50.2455 291.826C51.5511 292.325 53.8981 289.358 55.4877 285.199Z" fill="#2F2E41"/>
</g>
<g filter="url(#filter9_d_9_104)">
<path d="M54.136 299.053C55.5623 290.264 49.5933 281.982 40.8039 280.556C32.0144 279.129 23.7328 285.098 22.3065 293.888C20.8802 302.677 26.8492 310.959 35.6386 312.385C44.4281 313.812 52.7097 307.843 54.136 299.053Z" fill="#2F2E41"/>
</g>
<g filter="url(#filter10_d_9_104)">
<path d="M35.7724 309.124H30.8743V317.9H35.7724V309.124Z" fill="#2F2E41"/>
</g>
<g filter="url(#filter11_d_9_104)">
<path d="M45.5685 309.124H40.6704V317.9H45.5685V309.124Z" fill="#2F2E41"/>
</g>
<g filter="url(#filter12_d_9_104)">
<path d="M34.956 319.533C37.2103 319.533 39.0378 318.847 39.0378 318.002C39.0378 317.156 37.2103 316.471 34.956 316.471C32.7017 316.471 30.8743 317.156 30.8743 318.002C30.8743 318.847 32.7017 319.533 34.956 319.533Z" fill="#2F2E41"/>
</g>
<g filter="url(#filter13_d_9_104)">
<path d="M44.7522 319.328C47.0065 319.328 48.8339 318.643 48.8339 317.798C48.8339 316.952 47.0065 316.267 44.7522 316.267C42.4979 316.267 40.6704 316.952 40.6704 317.798C40.6704 318.643 42.4979 319.328 44.7522 319.328Z" fill="#2F2E41"/>
</g>
<g filter="url(#filter14_d_9_104)">
<path d="M38.7914 297.897C41.8334 297.808 44.227 295.269 44.1376 292.227C44.0482 289.185 41.5097 286.792 38.4677 286.881C35.4257 286.971 33.0322 289.509 33.1216 292.551C33.211 295.593 35.7495 297.986 38.7914 297.897Z" fill="white"/>
</g>
<g filter="url(#filter15_d_9_104)">
<path d="M38.6295 294.226C39.644 294.226 40.4663 293.403 40.4663 292.389C40.4663 291.375 39.644 290.552 38.6295 290.552C37.6151 290.552 36.7927 291.375 36.7927 292.389C36.7927 293.403 37.6151 294.226 38.6295 294.226Z" fill="#3F3D56"/>
</g>
<g filter="url(#filter16_d_9_104)">
<path d="M22.5816 281.477C21.2798 275.647 25.4413 269.755 31.8766 268.318C38.3119 266.881 44.5842 270.443 45.886 276.273C47.1879 282.104 42.9229 284.254 36.4876 285.691C30.0523 287.128 23.8835 287.307 22.5816 281.477Z" fill="#FA814C"/>
</g>
<g filter="url(#filter17_d_9_104)">
<path d="M27.3452 292.444C27.9441 291.181 25.1686 288.611 21.1459 286.703C17.1232 284.795 13.3766 284.272 12.7776 285.535C12.1787 286.798 14.9542 289.368 18.9769 291.276C22.9996 293.184 26.7462 293.707 27.3452 292.444Z" fill="#2F2E41"/>
</g>
<g filter="url(#filter18_d_9_104)">
<path d="M30.3018 302.287C30.3018 303.865 34.3649 306.981 38.8735 306.981C43.3821 306.981 47.6093 302.538 47.6093 300.96C47.6093 299.382 43.382 301.267 38.8735 301.267C34.3649 301.267 30.3018 300.709 30.3018 302.287Z" fill="white"/>
</g>
<g filter="url(#filter19_d_9_104)">
<path d="M278.143 20.8794C274.678 19.2363 272.288 17.0226 272.804 15.935C273.32 14.8474 276.546 15.2977 280.011 16.9409C283.475 18.584 285.866 20.7977 285.35 21.8853C284.834 22.9729 281.607 22.5225 278.143 20.8794Z" fill="#2F2E41"/>
</g>
<g filter="url(#filter20_d_9_104)">
<path d="M311.37 23.3799C307.794 24.7638 304.543 24.9757 304.109 23.8531C303.674 22.7305 306.221 20.6986 309.797 19.3147C313.373 17.9307 316.624 17.7189 317.058 18.8414C317.493 19.964 314.946 21.996 311.37 23.3799Z" fill="#2F2E41"/>
</g>
<g filter="url(#filter21_d_9_104)">
<path d="M294.716 39.2386C287.047 39.2386 280.831 33.0219 280.831 25.3532C280.831 17.6845 287.047 11.4678 294.716 11.4678C302.385 11.4678 308.602 17.6845 308.602 25.3532C308.602 33.0219 302.385 39.2386 294.716 39.2386Z" fill="#2F2E41"/>
</g>
<g filter="url(#filter22_d_9_104)">
<path d="M303.777 35.7587L305.841 32.0798L312.433 35.7779L310.369 39.4568L303.777 35.7587Z" fill="#2F2E41"/>
</g>
<g filter="url(#filter23_d_9_104)">
<path d="M294.096 38.39L297.985 36.7561L300.913 43.724L297.024 45.3579L294.096 38.39Z" fill="#2F2E41"/>
</g>
<g filter="url(#filter24_d_9_104)">
<path d="M311.615 39.4147C310.601 41.0698 309.275 42.103 308.654 41.7224C308.033 41.3418 308.353 39.6916 309.368 38.0365C310.383 36.3815 311.709 35.3483 312.329 35.7289C312.95 36.1095 312.63 37.7597 311.615 39.4147Z" fill="#2F2E41"/>
</g>
<g filter="url(#filter25_d_9_104)">
<path d="M298.148 46.22C296.359 46.9719 294.679 47.0374 294.397 46.3662C294.115 45.695 295.337 44.5412 297.127 43.7893C298.917 43.0373 300.597 42.9719 300.879 43.6431C301.161 44.3143 299.938 45.468 298.148 46.22Z" fill="#2F2E41"/>
</g>
<g filter="url(#filter26_d_9_104)">
<path d="M290.356 7.89883C291.596 2.90565 297.069 -0.0327305 302.581 1.33578C308.092 2.70428 311.555 7.86148 310.315 12.8547C309.075 17.8478 304.961 17.864 299.45 16.4954C293.939 15.1269 289.117 12.892 290.356 7.89883Z" fill="#FA814C"/>
</g>
<g filter="url(#filter27_d_9_104)">
<path d="M294.088 27.8471C291.531 27.8471 289.458 25.7745 289.458 23.2178C289.458 20.661 291.531 18.5884 294.088 18.5884C296.644 18.5884 298.717 20.661 298.717 23.2178C298.717 25.7745 296.644 27.8471 294.088 27.8471Z" fill="white"/>
</g>
<g filter="url(#filter28_d_9_104)">
<path d="M292.533 26.889C291.68 26.889 290.989 26.1981 290.989 25.3459C290.989 24.4936 291.68 23.8027 292.533 23.8027C293.385 23.8027 294.076 24.4936 294.076 25.3459C294.076 26.1981 293.385 26.889 292.533 26.889Z" fill="#3F3D56"/>
</g>
<g filter="url(#filter29_d_9_104)">
<path d="M300.005 30.7505C300.077 31.1493 300.07 31.5584 299.985 31.9546C299.899 32.3507 299.737 32.7262 299.506 33.0595C299.275 33.3927 298.981 33.6773 298.641 33.897C298.3 34.1166 297.92 34.2671 297.521 34.3396C297.122 34.4122 296.713 34.4056 296.317 34.32C295.921 34.2345 295.545 34.0718 295.212 33.8412C294.879 33.6105 294.594 33.3165 294.374 32.9759C294.155 32.6353 294.004 32.2548 293.932 31.856V31.856L293.931 31.8501C293.627 30.1728 294.924 29.5793 296.601 29.2757C298.278 28.9721 299.701 29.0733 300.005 30.7505Z" fill="white"/>
</g>
<g filter="url(#filter30_d_9_104)">
<path d="M65.5876 290.122L60.701 292.017L53.8379 280.129L69.0433 272.773L68.2325 273.842L69.4335 279.532C69.4335 279.532 70.6641 282.608 72.2704 283.805C73.372 284.626 75.5011 285.196 75.5011 285.196L70.3815 287.624L66.5774 288.427L65.5876 290.122Z" fill="white"/>
<path d="M60.0022 283.362L60.9643 283.312C61.0724 282.668 61.3581 282.033 61.7809 281.476C62.2037 280.919 62.7469 280.471 63.342 280.189C63.9371 279.907 64.5572 279.804 65.1239 279.892C65.6907 279.98 66.2115 280.273 66.5589 280.701L67.3914 279.998C66.9281 279.427 66.2552 278.932 65.4995 278.815C64.7439 278.697 63.917 278.835 63.1236 279.211C62.3302 279.587 61.6059 280.184 61.0421 280.926C60.4784 281.669 60.1462 282.503 60.0022 283.362Z" fill="#E6E6E6"/>
<path d="M67.4683 280.102L66.6557 280.807C67.0594 281.276 67.2359 281.914 67.1523 282.604C67.0688 283.293 66.6668 284.024 66.1372 284.594L66.8626 285.102C67.5687 284.342 67.9818 283.539 68.0932 282.619C68.1388 282.243 68.0084 281.773 67.9406 281.43C67.843 280.936 67.786 280.471 67.4683 280.102Z" fill="#895757"/>
<path d="M63.5334 285.853C63.1384 285.879 62.7588 285.835 62.4163 285.724C62.0738 285.613 61.7752 285.438 61.5374 285.208C61.2996 284.978 61.1274 284.698 61.0305 284.384C60.9336 284.07 60.914 283.728 60.9727 283.377L59.97 283.441C59.8451 284.186 59.9869 284.895 60.3753 285.469C60.7637 286.042 61.3792 286.452 62.135 286.638C62.8908 286.825 64.5223 286.228 64.5223 286.228C64.5223 286.228 65.7457 285.919 65.8744 285.854C66.1308 285.722 66.5936 285.439 66.813 285.134L66.1048 284.646C65.7695 284.992 65.3629 285.281 64.9168 285.49C64.4706 285.7 63.9971 285.824 63.5334 285.853Z" fill="#FF6363"/>
</g>
<g filter="url(#filter31_d_9_104)">
<path d="M258.478 16.8412L249.457 18.0179L247 34.024L255.091 32.9091L263.548 33.0996L276.5 30.5002L277 16.5L265.837 18.3868L258.478 16.8412Z" fill="white"/>
<path d="M257.384 25.6855L253.033 25.1183L252.838 28.0224L252.236 31.4711L255.076 31.3164L257.767 31.5957L257.845 28.1352L257.384 25.6855Z" fill="#895757"/>
<path d="M264.073 23.11L258.889 23.1897L258.827 25.9389L258.705 31.3635L263.879 31.7256L264.645 31.4973L264.007 26.0555L264.073 23.11Z" fill="#E6E6E6"/>
<path d="M269.982 20.4381L265.645 22.0158L265.555 25.9922L265.798 31.8356L270.658 30.6013L270.74 26.944L270.248 24.1087L269.982 20.4381Z" fill="#FF6363"/>
<path d="M252.798 21.0387L251.742 26.5159L251.116 32.4695L255.401 31.9521L263.836 32.535L273.564 30.2246" stroke="black" stroke-width="0.0701489"/>
</g>
<g filter="url(#filter32_d_9_104)">
<path d="M8.40773 300.965C12.867 301.564 15.9985 301.984 20.6474 300.862C20.9702 300.784 21.1543 300.75 21.4707 300.65C22.3852 300.359 26.0824 296.556 26.0824 296.556L21.8437 291.143L19.1073 288.548L17.605 285.73C17.605 285.73 11.1802 293.49 5.91195 297.042C4.43143 298.04 1.99987 299.408 1.99987 299.408C1.99987 299.408 5.54546 300.58 8.33474 300.955L8.40773 300.965Z" fill="#FFFDFD"/>
<path d="M18.9509 300.774L12.446 292.918C12.3986 292.86 12.3257 292.826 12.2433 292.824C12.161 292.821 12.076 292.849 12.0071 292.903C11.9381 292.956 11.8908 293.03 11.8756 293.108C11.8604 293.186 11.8786 293.263 11.926 293.32L13.7147 295.48L14.2841 296.168L15.1715 296.699L15.6116 297.771L18.4309 301.177C18.4783 301.234 18.5512 301.268 18.6335 301.271C18.7159 301.273 18.8009 301.245 18.8698 301.192C18.9388 301.138 18.9861 301.064 19.0013 300.986C19.0165 300.908 18.9983 300.832 18.9509 300.774Z" fill="#E4E4E4"/>
<path d="M16.6238 299.238L15.5058 297.678L15.1715 296.7L14.1362 296.129L11.9281 293.567C11.875 293.505 11.8505 293.424 11.8595 293.34C11.8685 293.257 11.9103 293.177 11.9766 293.117C12.0123 293.085 12.0539 293.06 12.0988 293.044C12.1437 293.028 12.1909 293.02 12.2373 293.022C12.2837 293.024 12.3285 293.034 12.3689 293.053C12.4092 293.072 12.4444 293.099 12.4721 293.133L14.8371 295.722L16.0762 296.642L16.2067 297.27L16.8745 298.336C16.9785 298.462 16.9289 298.628 16.9022 298.795C16.8755 298.961 16.7809 299.117 16.6391 299.227L16.6238 299.238Z" fill="#FF6363"/>
<path d="M18.9822 299.859C19.834 300.428 20.6049 300.876 20.6049 300.876C20.6049 300.876 19.5329 301.138 18.1804 301.33C17.1569 301.476 15.966 301.562 14.9961 301.574C12.7498 301.603 9.09652 301.052 9.09652 301.052C9.09652 301.052 11.3097 299.919 12.7449 299.247C13.3217 298.977 13.6512 298.839 14.2262 298.565C14.7298 298.325 14.9546 298 15.5087 297.936C16.1444 297.862 16.4757 298.124 17.0843 298.386C17.6929 298.648 18.4311 299.491 18.9822 299.859Z" fill="url(#paint0_linear_9_104)"/>
<path d="M22.8234 297.443C22.8234 297.443 22.6016 297.072 22.4806 296.87C22.2599 296.501 21.8296 295.979 21.8296 295.979L19.0638 292.828L17.898 291.63L15.7691 289.137C15.7165 289.078 15.6394 289.043 15.5547 289.04C15.47 289.038 15.3847 289.067 15.3176 289.123C15.2504 289.179 15.2069 289.256 15.1967 289.337C15.1864 289.418 15.2102 289.497 15.2628 289.557L17.2155 290.955L17.4934 291.915L17.9429 292.495L21.3884 296.472C21.3884 296.472 21.6719 296.859 21.8474 297.112C22.0091 297.345 22.0668 297.555 22.2104 297.718C22.3184 297.841 22.4054 297.968 22.5131 297.995C22.5921 298.015 22.6981 298.031 22.7757 297.975C22.8665 297.909 22.8943 297.876 22.9185 297.798C22.9496 297.697 22.8774 297.533 22.8234 297.443Z" fill="#E4E4E4"/>
<path d="M20.9106 299.858C20.8887 299.736 20.4469 298.939 20.2717 298.686C19.888 298.13 19.9415 298.137 19.6767 297.758C19.2976 297.215 18.4216 296.112 17.4823 294.953C17.311 294.742 16.5031 294.427 16.5031 294.427C16.5031 294.427 16.5289 294.086 16.342 293.815C16.1633 293.556 15.7754 293.371 15.6164 293.178C15.3494 292.854 15.5517 292.632 15.3298 292.364C14.7702 291.688 14.2615 291.043 14.2615 291.043C14.2114 290.981 14.1357 290.943 14.0512 290.937C13.9667 290.931 13.8803 290.957 13.811 291.01C13.7416 291.063 13.6951 291.138 13.6815 291.219C13.668 291.3 13.6886 291.38 13.7388 291.441L15.8824 293.608L16.5858 294.716C16.5858 294.716 18.3721 296.948 19.2554 298.076C19.4833 298.367 19.5 298.598 19.6825 298.917C19.8499 299.21 20.0614 299.695 20.0614 299.695C20.1116 299.756 20.2211 300.234 20.4529 300.331C20.5424 300.368 20.6111 300.371 20.7161 300.322C20.8184 300.274 20.9063 300.202 20.9199 300.121C20.9334 300.04 20.9324 299.98 20.9106 299.858Z" fill="#E4E4E4"/>
<path d="M19.0038 293.839L17.5178 291.957L16.9435 290.776L16.1762 290.361L15.265 289.619C15.2098 289.558 15.1826 289.478 15.1888 289.394C15.195 289.311 15.2342 289.229 15.2984 289.167C15.333 289.134 15.3738 289.108 15.4181 289.091C15.4624 289.073 15.5093 289.064 15.5558 289.064C15.6023 289.064 15.6473 289.073 15.6883 289.091C15.7293 289.108 15.7653 289.134 15.7941 289.167L16.3505 289.702L17.2914 290.266L17.6395 290.961L19.1315 292.934C19.2396 293.056 19.2885 293.219 19.2673 293.387C19.2462 293.554 19.1568 293.712 19.0187 293.827L19.0038 293.839Z" fill="#FF6363"/>
<path d="M19.1738 298.081L17.682 296.177L16.9972 295.403L16.1137 294.603L15.907 293.863L15.7482 293.392L14.8205 292.777L13.7608 291.45C13.7081 291.388 13.6841 291.307 13.6937 291.223C13.7033 291.14 13.7457 291.06 13.8124 291.001C13.8483 290.969 13.8901 290.945 13.9351 290.929C13.9801 290.913 14.0273 290.906 14.0738 290.908C14.1202 290.91 14.1649 290.921 14.2051 290.94C14.2453 290.959 14.2803 290.987 14.3078 291.02L15.4988 292.496L15.9819 292.853L16.5228 293.057L16.5324 293.797L16.6629 294.425L17.4603 294.859L19.3378 297.182C19.4409 297.309 19.4832 297.473 19.4553 297.64C19.4274 297.806 19.3317 297.961 19.1892 298.07L19.1738 298.081Z" fill="#FF6363"/>
</g>
<defs>
<filter id="filter0_d_9_104" x="24.6086" y="325.676" width="38.2458" height="38.2458" filterUnits="userSpaceOnUse" color-interpolation-filters="sRGB">
<feFlood flood-opacity="0" result="BackgroundImageFix"/>
<feColorMatrix in="SourceAlpha" type="matrix" values="0 0 0 0 0 0 0 0 0 0 0 0 0 0 0 0 0 0 127 0" result="hardAlpha"/>
<feOffset dy="2"/>
<feGaussianBlur stdDeviation="1.5"/>
<feComposite in2="hardAlpha" operator="out"/>
<feColorMatrix type="matrix" values="0 0 0 0 0 0 0 0 0 0 0 0 0 0 0 0 0 0 0.1 0"/>
<feBlend mode="normal" in2="BackgroundImageFix" result="effect1_dropShadow_9_104"/>
<feBlend mode="normal" in="SourceGraphic" in2="effect1_dropShadow_9_104" result="shape"/>
</filter>
<filter id="filter1_d_9_104" x="33.3845" y="354.452" width="10.8981" height="14.7759" filterUnits="userSpaceOnUse" color-interpolation-filters="sRGB">
<feFlood flood-opacity="0" result="BackgroundImageFix"/>
<feColorMatrix in="SourceAlpha" type="matrix" values="0 0 0 0 0 0 0 0 0 0 0 0 0 0 0 0 0 0 127 0" result="hardAlpha"/>
<feOffset dy="2"/>
<feGaussianBlur stdDeviation="1.5"/>
<feComposite in2="hardAlpha" operator="out"/>
<feColorMatrix type="matrix" values="0 0 0 0 0 0 0 0 0 0 0 0 0 0 0 0 0 0 0.1 0"/>
<feBlend mode="normal" in2="BackgroundImageFix" result="effect1_dropShadow_9_104"/>
<feBlend mode="normal" in="SourceGraphic" in2="effect1_dropShadow_9_104" result="shape"/>
</filter>
<filter id="filter2_d_9_104" x="43.1807" y="354.452" width="10.8981" height="14.7759" filterUnits="userSpaceOnUse" color-interpolation-filters="sRGB">
<feFlood flood-opacity="0" result="BackgroundImageFix"/>
<feColorMatrix in="SourceAlpha" type="matrix" values="0 0 0 0 0 0 0 0 0 0 0 0 0 0 0 0 0 0 127 0" result="hardAlpha"/>
<feOffset dy="2"/>
<feGaussianBlur stdDeviation="1.5"/>
<feComposite in2="hardAlpha" operator="out"/>
<feColorMatrix type="matrix" values="0 0 0 0 0 0 0 0 0 0 0 0 0 0 0 0 0 0 0.1 0"/>
<feBlend mode="normal" in2="BackgroundImageFix" result="effect1_dropShadow_9_104"/>
<feBlend mode="normal" in="SourceGraphic" in2="effect1_dropShadow_9_104" result="shape"/>
</filter>
<filter id="filter3_d_9_104" x="33.3845" y="361.799" width="14.1636" height="9.06128" filterUnits="userSpaceOnUse" color-interpolation-filters="sRGB">
<feFlood flood-opacity="0" result="BackgroundImageFix"/>
<feColorMatrix in="SourceAlpha" type="matrix" values="0 0 0 0 0 0 0 0 0 0 0 0 0 0 0 0 0 0 127 0" result="hardAlpha"/>
<feOffset dy="2"/>
<feGaussianBlur stdDeviation="1.5"/>
<feComposite in2="hardAlpha" operator="out"/>
<feColorMatrix type="matrix" values="0 0 0 0 0 0 0 0 0 0 0 0 0 0 0 0 0 0 0.1 0"/>
<feBlend mode="normal" in2="BackgroundImageFix" result="effect1_dropShadow_9_104"/>
<feBlend mode="normal" in="SourceGraphic" in2="effect1_dropShadow_9_104" result="shape"/>
</filter>
<filter id="filter4_d_9_104" x="43.1807" y="361.595" width="14.1636" height="9.06128" filterUnits="userSpaceOnUse" color-interpolation-filters="sRGB">
<feFlood flood-opacity="0" result="BackgroundImageFix"/>
<feColorMatrix in="SourceAlpha" type="matrix" values="0 0 0 0 0 0 0 0 0 0 0 0 0 0 0 0 0 0 127 0" result="hardAlpha"/>
<feOffset dy="2"/>
<feGaussianBlur stdDeviation="1.5"/>
<feComposite in2="hardAlpha" operator="out"/>
<feColorMatrix type="matrix" values="0 0 0 0 0 0 0 0 0 0 0 0 0 0 0 0 0 0 0.1 0"/>
<feBlend mode="normal" in2="BackgroundImageFix" result="effect1_dropShadow_9_104"/>
<feBlend mode="normal" in="SourceGraphic" in2="effect1_dropShadow_9_104" result="shape"/>
</filter>
<filter id="filter5_d_9_104" x="35.6294" y="332.207" width="17.0208" height="17.0208" filterUnits="userSpaceOnUse" color-interpolation-filters="sRGB">
<feFlood flood-opacity="0" result="BackgroundImageFix"/>
<feColorMatrix in="SourceAlpha" type="matrix" values="0 0 0 0 0 0 0 0 0 0 0 0 0 0 0 0 0 0 127 0" result="hardAlpha"/>
<feOffset dy="2"/>
<feGaussianBlur stdDeviation="1.5"/>
<feComposite in2="hardAlpha" operator="out"/>
<feColorMatrix type="matrix" values="0 0 0 0 0 0 0 0 0 0 0 0 0 0 0 0 0 0 0.1 0"/>
<feBlend mode="normal" in2="BackgroundImageFix" result="effect1_dropShadow_9_104"/>
<feBlend mode="normal" in="SourceGraphic" in2="effect1_dropShadow_9_104" result="shape"/>
</filter>
<filter id="filter6_d_9_104" x="39.3032" y="335.88" width="9.67358" height="9.67358" filterUnits="userSpaceOnUse" color-interpolation-filters="sRGB">
<feFlood flood-opacity="0" result="BackgroundImageFix"/>
<feColorMatrix in="SourceAlpha" type="matrix" values="0 0 0 0 0 0 0 0 0 0 0 0 0 0 0 0 0 0 127 0" result="hardAlpha"/>
<feOffset dy="2"/>
<feGaussianBlur stdDeviation="1.5"/>
<feComposite in2="hardAlpha" operator="out"/>
<feColorMatrix type="matrix" values="0 0 0 0 0 0 0 0 0 0 0 0 0 0 0 0 0 0 0.1 0"/>
<feBlend mode="normal" in2="BackgroundImageFix" result="effect1_dropShadow_9_104"/>
<feBlend mode="normal" in="SourceGraphic" in2="effect1_dropShadow_9_104" result="shape"/>
</filter>
<filter id="filter7_d_9_104" x="24.8535" y="313.328" width="29.7769" height="24.5339" filterUnits="userSpaceOnUse" color-interpolation-filters="sRGB">
<feFlood flood-opacity="0" result="BackgroundImageFix"/>
<feColorMatrix in="SourceAlpha" type="matrix" values="0 0 0 0 0 0 0 0 0 0 0 0 0 0 0 0 0 0 127 0" result="hardAlpha"/>
<feOffset dy="2"/>
<feGaussianBlur stdDeviation="1.5"/>
<feComposite in2="hardAlpha" operator="out"/>
<feColorMatrix type="matrix" values="0 0 0 0 0 0 0 0 0 0 0 0 0 0 0 0 0 0 0.1 0"/>
<feBlend mode="normal" in2="BackgroundImageFix" result="effect1_dropShadow_9_104"/>
<feBlend mode="normal" in="SourceGraphic" in2="effect1_dropShadow_9_104" result="shape"/>
</filter>
<filter id="filter8_d_9_104" x="46.399" y="275.711" width="13.4493" height="21.1699" filterUnits="userSpaceOnUse" color-interpolation-filters="sRGB">
<feFlood flood-opacity="0" result="BackgroundImageFix"/>
<feColorMatrix in="SourceAlpha" type="matrix" values="0 0 0 0 0 0 0 0 0 0 0 0 0 0 0 0 0 0 127 0" result="hardAlpha"/>
<feOffset dy="2"/>
<feGaussianBlur stdDeviation="1.5"/>
<feComposite in2="hardAlpha" operator="out"/>
<feColorMatrix type="matrix" values="0 0 0 0 0 0 0 0 0 0 0 0 0 0 0 0 0 0 0.1 0"/>
<feBlend mode="normal" in2="BackgroundImageFix" result="effect1_dropShadow_9_104"/>
<feBlend mode="normal" in="SourceGraphic" in2="effect1_dropShadow_9_104" result="shape"/>
</filter>
<filter id="filter9_d_9_104" x="19.0958" y="279.345" width="38.2507" height="38.2507" filterUnits="userSpaceOnUse" color-interpolation-filters="sRGB">
<feFlood flood-opacity="0" result="BackgroundImageFix"/>
<feColorMatrix in="SourceAlpha" type="matrix" values="0 0 0 0 0 0 0 0 0 0 0 0 0 0 0 0 0 0 127 0" result="hardAlpha"/>
<feOffset dy="2"/>
<feGaussianBlur stdDeviation="1.5"/>
<feComposite in2="hardAlpha" operator="out"/>
<feColorMatrix type="matrix" values="0 0 0 0 0 0 0 0 0 0 0 0 0 0 0 0 0 0 0.1 0"/>
<feBlend mode="normal" in2="BackgroundImageFix" result="effect1_dropShadow_9_104"/>
<feBlend mode="normal" in="SourceGraphic" in2="effect1_dropShadow_9_104" result="shape"/>
</filter>
<filter id="filter10_d_9_104" x="27.8743" y="308.124" width="10.8981" height="14.7759" filterUnits="userSpaceOnUse" color-interpolation-filters="sRGB">
<feFlood flood-opacity="0" result="BackgroundImageFix"/>
<feColorMatrix in="SourceAlpha" type="matrix" values="0 0 0 0 0 0 0 0 0 0 0 0 0 0 0 0 0 0 127 0" result="hardAlpha"/>
<feOffset dy="2"/>
<feGaussianBlur stdDeviation="1.5"/>
<feComposite in2="hardAlpha" operator="out"/>
<feColorMatrix type="matrix" values="0 0 0 0 0 0 0 0 0 0 0 0 0 0 0 0 0 0 0.1 0"/>
<feBlend mode="normal" in2="BackgroundImageFix" result="effect1_dropShadow_9_104"/>
<feBlend mode="normal" in="SourceGraphic" in2="effect1_dropShadow_9_104" result="shape"/>
</filter>
<filter id="filter11_d_9_104" x="37.6704" y="308.124" width="10.8981" height="14.7759" filterUnits="userSpaceOnUse" color-interpolation-filters="sRGB">
<feFlood flood-opacity="0" result="BackgroundImageFix"/>
<feColorMatrix in="SourceAlpha" type="matrix" values="0 0 0 0 0 0 0 0 0 0 0 0 0 0 0 0 0 0 127 0" result="hardAlpha"/>
<feOffset dy="2"/>
<feGaussianBlur stdDeviation="1.5"/>
<feComposite in2="hardAlpha" operator="out"/>
<feColorMatrix type="matrix" values="0 0 0 0 0 0 0 0 0 0 0 0 0 0 0 0 0 0 0.1 0"/>
<feBlend mode="normal" in2="BackgroundImageFix" result="effect1_dropShadow_9_104"/>
<feBlend mode="normal" in="SourceGraphic" in2="effect1_dropShadow_9_104" result="shape"/>
</filter>
<filter id="filter12_d_9_104" x="27.8743" y="315.471" width="14.1636" height="9.06128" filterUnits="userSpaceOnUse" color-interpolation-filters="sRGB">
<feFlood flood-opacity="0" result="BackgroundImageFix"/>
<feColorMatrix in="SourceAlpha" type="matrix" values="0 0 0 0 0 0 0 0 0 0 0 0 0 0 0 0 0 0 127 0" result="hardAlpha"/>
<feOffset dy="2"/>
<feGaussianBlur stdDeviation="1.5"/>
<feComposite in2="hardAlpha" operator="out"/>
<feColorMatrix type="matrix" values="0 0 0 0 0 0 0 0 0 0 0 0 0 0 0 0 0 0 0.1 0"/>
<feBlend mode="normal" in2="BackgroundImageFix" result="effect1_dropShadow_9_104"/>
<feBlend mode="normal" in="SourceGraphic" in2="effect1_dropShadow_9_104" result="shape"/>
</filter>
<filter id="filter13_d_9_104" x="37.6704" y="315.267" width="14.1636" height="9.06128" filterUnits="userSpaceOnUse" color-interpolation-filters="sRGB">
<feFlood flood-opacity="0" result="BackgroundImageFix"/>
<feColorMatrix in="SourceAlpha" type="matrix" values="0 0 0 0 0 0 0 0 0 0 0 0 0 0 0 0 0 0 127 0" result="hardAlpha"/>
<feOffset dy="2"/>
<feGaussianBlur stdDeviation="1.5"/>
<feComposite in2="hardAlpha" operator="out"/>
<feColorMatrix type="matrix" values="0 0 0 0 0 0 0 0 0 0 0 0 0 0 0 0 0 0 0.1 0"/>
<feBlend mode="normal" in2="BackgroundImageFix" result="effect1_dropShadow_9_104"/>
<feBlend mode="normal" in="SourceGraphic" in2="effect1_dropShadow_9_104" result="shape"/>
</filter>
<filter id="filter14_d_9_104" x="30.1191" y="285.879" width="17.0209" height="17.0208" filterUnits="userSpaceOnUse" color-interpolation-filters="sRGB">
<feFlood flood-opacity="0" result="BackgroundImageFix"/>
<feColorMatrix in="SourceAlpha" type="matrix" values="0 0 0 0 0 0 0 0 0 0 0 0 0 0 0 0 0 0 127 0" result="hardAlpha"/>
<feOffset dy="2"/>
<feGaussianBlur stdDeviation="1.5"/>
<feComposite in2="hardAlpha" operator="out"/>
<feColorMatrix type="matrix" values="0 0 0 0 0 0 0 0 0 0 0 0 0 0 0 0 0 0 0.1 0"/>
<feBlend mode="normal" in2="BackgroundImageFix" result="effect1_dropShadow_9_104"/>
<feBlend mode="normal" in="SourceGraphic" in2="effect1_dropShadow_9_104" result="shape"/>
</filter>
<filter id="filter15_d_9_104" x="33.7927" y="289.552" width="9.67358" height="9.67358" filterUnits="userSpaceOnUse" color-interpolation-filters="sRGB">
<feFlood flood-opacity="0" result="BackgroundImageFix"/>
<feColorMatrix in="SourceAlpha" type="matrix" values="0 0 0 0 0 0 0 0 0 0 0 0 0 0 0 0 0 0 127 0" result="hardAlpha"/>
<feOffset dy="2"/>
<feGaussianBlur stdDeviation="1.5"/>
<feComposite in2="hardAlpha" operator="out"/>
<feColorMatrix type="matrix" values="0 0 0 0 0 0 0 0 0 0 0 0 0 0 0 0 0 0 0.1 0"/>
<feBlend mode="normal" in2="BackgroundImageFix" result="effect1_dropShadow_9_104"/>
<feBlend mode="normal" in="SourceGraphic" in2="effect1_dropShadow_9_104" result="shape"/>
</filter>
<filter id="filter16_d_9_104" x="19.3433" y="267" width="29.7769" height="24.5339" filterUnits="userSpaceOnUse" color-interpolation-filters="sRGB">
<feFlood flood-opacity="0" result="BackgroundImageFix"/>
<feColorMatrix in="SourceAlpha" type="matrix" values="0 0 0 0 0 0 0 0 0 0 0 0 0 0 0 0 0 0 127 0" result="hardAlpha"/>
<feOffset dy="2"/>
<feGaussianBlur stdDeviation="1.5"/>
<feComposite in2="hardAlpha" operator="out"/>
<feColorMatrix type="matrix" values="0 0 0 0 0 0 0 0 0 0 0 0 0 0 0 0 0 0 0.1 0"/>
<feBlend mode="normal" in2="BackgroundImageFix" result="effect1_dropShadow_9_104"/>
<feBlend mode="normal" in="SourceGraphic" in2="effect1_dropShadow_9_104" result="shape"/>
</filter>
<filter id="filter17_d_9_104" x="9.69629" y="283.846" width="20.7301" height="14.2866" filterUnits="userSpaceOnUse" color-interpolation-filters="sRGB">
<feFlood flood-opacity="0" result="BackgroundImageFix"/>
<feColorMatrix in="SourceAlpha" type="matrix" values="0 0 0 0 0 0 0 0 0 0 0 0 0 0 0 0 0 0 127 0" result="hardAlpha"/>
<feOffset dy="2"/>
<feGaussianBlur stdDeviation="1.5"/>
<feComposite in2="hardAlpha" operator="out"/>
<feColorMatrix type="matrix" values="0 0 0 0 0 0 0 0 0 0 0 0 0 0 0 0 0 0 0.1 0"/>
<feBlend mode="normal" in2="BackgroundImageFix" result="effect1_dropShadow_9_104"/>
<feBlend mode="normal" in="SourceGraphic" in2="effect1_dropShadow_9_104" result="shape"/>
</filter>
<filter id="filter18_d_9_104" x="27.3018" y="299.331" width="23.3076" height="12.6504" filterUnits="userSpaceOnUse" color-interpolation-filters="sRGB">
<feFlood flood-opacity="0" result="BackgroundImageFix"/>
<feColorMatrix in="SourceAlpha" type="matrix" values="0 0 0 0 0 0 0 0 0 0 0 0 0 0 0 0 0 0 127 0" result="hardAlpha"/>
<feOffset dy="2"/>
<feGaussianBlur stdDeviation="1.5"/>
<feComposite in2="hardAlpha" operator="out"/>
<feColorMatrix type="matrix" values="0 0 0 0 0 0 0 0 0 0 0 0 0 0 0 0 0 0 0.1 0"/>
<feBlend mode="normal" in2="BackgroundImageFix" result="effect1_dropShadow_9_104"/>
<feBlend mode="normal" in="SourceGraphic" in2="effect1_dropShadow_9_104" result="shape"/>
</filter>
<filter id="filter19_d_9_104" x="269.734" y="14.3418" width="18.6858" height="13.1365" filterUnits="userSpaceOnUse" color-interpolation-filters="sRGB">
<feFlood flood-opacity="0" result="BackgroundImageFix"/>
<feColorMatrix in="SourceAlpha" type="matrix" values="0 0 0 0 0 0 0 0 0 0 0 0 0 0 0 0 0 0 127 0" result="hardAlpha"/>
<feOffset dy="2"/>
<feGaussianBlur stdDeviation="1.5"/>
<feComposite in2="hardAlpha" operator="out"/>
<feColorMatrix type="matrix" values="0 0 0 0 0 0 0 0 0 0 0 0 0 0 0 0 0 0 0.1 0"/>
<feBlend mode="normal" in2="BackgroundImageFix" result="effect1_dropShadow_9_104"/>
<feBlend mode="normal" in="SourceGraphic" in2="effect1_dropShadow_9_104" result="shape"/>
</filter>
<filter id="filter20_d_9_104" x="301.06" y="17.1206" width="19.046" height="12.4534" filterUnits="userSpaceOnUse" color-interpolation-filters="sRGB">
<feFlood flood-opacity="0" result="BackgroundImageFix"/>
<feColorMatrix in="SourceAlpha" type="matrix" values="0 0 0 0 0 0 0 0 0 0 0 0 0 0 0 0 0 0 127 0" result="hardAlpha"/>
<feOffset dy="2"/>
<feGaussianBlur stdDeviation="1.5"/>
<feComposite in2="hardAlpha" operator="out"/>
<feColorMatrix type="matrix" values="0 0 0 0 0 0 0 0 0 0 0 0 0 0 0 0 0 0 0.1 0"/>
<feBlend mode="normal" in2="BackgroundImageFix" result="effect1_dropShadow_9_104"/>
<feBlend mode="normal" in="SourceGraphic" in2="effect1_dropShadow_9_104" result="shape"/>
</filter>
<filter id="filter21_d_9_104" x="277.831" y="10.4678" width="33.7708" height="33.7708" filterUnits="userSpaceOnUse" color-interpolation-filters="sRGB">
<feFlood flood-opacity="0" result="BackgroundImageFix"/>
<feColorMatrix in="SourceAlpha" type="matrix" values="0 0 0 0 0 0 0 0 0 0 0 0 0 0 0 0 0 0 127 0" result="hardAlpha"/>
<feOffset dy="2"/>
<feGaussianBlur stdDeviation="1.5"/>
<feComposite in2="hardAlpha" operator="out"/>
<feColorMatrix type="matrix" values="0 0 0 0 0 0 0 0 0 0 0 0 0 0 0 0 0 0 0.1 0"/>
<feBlend mode="normal" in2="BackgroundImageFix" result="effect1_dropShadow_9_104"/>
<feBlend mode="normal" in="SourceGraphic" in2="effect1_dropShadow_9_104" result="shape"/>
</filter>
<filter id="filter22_d_9_104" x="300.777" y="31.0798" width="14.6553" height="13.377" filterUnits="userSpaceOnUse" color-interpolation-filters="sRGB">
<feFlood flood-opacity="0" result="BackgroundImageFix"/>
<feColorMatrix in="SourceAlpha" type="matrix" values="0 0 0 0 0 0 0 0 0 0 0 0 0 0 0 0 0 0 127 0" result="hardAlpha"/>
<feOffset dy="2"/>
<feGaussianBlur stdDeviation="1.5"/>
<feComposite in2="hardAlpha" operator="out"/>
<feColorMatrix type="matrix" values="0 0 0 0 0 0 0 0 0 0 0 0 0 0 0 0 0 0 0.1 0"/>
<feBlend mode="normal" in2="BackgroundImageFix" result="effect1_dropShadow_9_104"/>
<feBlend mode="normal" in="SourceGraphic" in2="effect1_dropShadow_9_104" result="shape"/>
</filter>
<filter id="filter23_d_9_104" x="291.096" y="35.7561" width="12.8164" height="14.6018" filterUnits="userSpaceOnUse" color-interpolation-filters="sRGB">
<feFlood flood-opacity="0" result="BackgroundImageFix"/>
<feColorMatrix in="SourceAlpha" type="matrix" values="0 0 0 0 0 0 0 0 0 0 0 0 0 0 0 0 0 0 127 0" result="hardAlpha"/>
<feOffset dy="2"/>
<feGaussianBlur stdDeviation="1.5"/>
<feComposite in2="hardAlpha" operator="out"/>
<feColorMatrix type="matrix" values="0 0 0 0 0 0 0 0 0 0 0 0 0 0 0 0 0 0 0.1 0"/>
<feBlend mode="normal" in2="BackgroundImageFix" result="effect1_dropShadow_9_104"/>
<feBlend mode="normal" in="SourceGraphic" in2="effect1_dropShadow_9_104" result="shape"/>
</filter>
<filter id="filter24_d_9_104" x="305.337" y="34.6499" width="10.3086" height="12.1514" filterUnits="userSpaceOnUse" color-interpolation-filters="sRGB">
<feFlood flood-opacity="0" result="BackgroundImageFix"/>
<feColorMatrix in="SourceAlpha" type="matrix" values="0 0 0 0 0 0 0 0 0 0 0 0 0 0 0 0 0 0 127 0" result="hardAlpha"/>
<feOffset dy="2"/>
<feGaussianBlur stdDeviation="1.5"/>
<feComposite in2="hardAlpha" operator="out"/>
<feColorMatrix type="matrix" values="0 0 0 0 0 0 0 0 0 0 0 0 0 0 0 0 0 0 0.1 0"/>
<feBlend mode="normal" in2="BackgroundImageFix" result="effect1_dropShadow_9_104"/>
<feBlend mode="normal" in="SourceGraphic" in2="effect1_dropShadow_9_104" result="shape"/>
</filter>
<filter id="filter25_d_9_104" x="291.356" y="42.1794" width="12.5627" height="9.65039" filterUnits="userSpaceOnUse" color-interpolation-filters="sRGB">
<feFlood flood-opacity="0" result="BackgroundImageFix"/>
<feColorMatrix in="SourceAlpha" type="matrix" values="0 0 0 0 0 0 0 0 0 0 0 0 0 0 0 0 0 0 127 0" result="hardAlpha"/>
<feOffset dy="2"/>
<feGaussianBlur stdDeviation="1.5"/>
<feComposite in2="hardAlpha" operator="out"/>
<feColorMatrix type="matrix" values="0 0 0 0 0 0 0 0 0 0 0 0 0 0 0 0 0 0 0.1 0"/>
<feBlend mode="normal" in2="BackgroundImageFix" result="effect1_dropShadow_9_104"/>
<feBlend mode="normal" in="SourceGraphic" in2="effect1_dropShadow_9_104" result="shape"/>
</filter>
<filter id="filter26_d_9_104" x="287.16" y="0" width="26.4064" height="22.27" filterUnits="userSpaceOnUse" color-interpolation-filters="sRGB">
<feFlood flood-opacity="0" result="BackgroundImageFix"/>
<feColorMatrix in="SourceAlpha" type="matrix" values="0 0 0 0 0 0 0 0 0 0 0 0 0 0 0 0 0 0 127 0" result="hardAlpha"/>
<feOffset dy="2"/>
<feGaussianBlur stdDeviation="1.5"/>
<feComposite in2="hardAlpha" operator="out"/>
<feColorMatrix type="matrix" values="0 0 0 0 0 0 0 0 0 0 0 0 0 0 0 0 0 0 0.1 0"/>
<feBlend mode="normal" in2="BackgroundImageFix" result="effect1_dropShadow_9_104"/>
<feBlend mode="normal" in="SourceGraphic" in2="effect1_dropShadow_9_104" result="shape"/>
</filter>
<filter id="filter27_d_9_104" x="286.458" y="17.5884" width="15.2588" height="15.2588" filterUnits="userSpaceOnUse" color-interpolation-filters="sRGB">
<feFlood flood-opacity="0" result="BackgroundImageFix"/>
<feColorMatrix in="SourceAlpha" type="matrix" values="0 0 0 0 0 0 0 0 0 0 0 0 0 0 0 0 0 0 127 0" result="hardAlpha"/>
<feOffset dy="2"/>
<feGaussianBlur stdDeviation="1.5"/>
<feComposite in2="hardAlpha" operator="out"/>
<feColorMatrix type="matrix" values="0 0 0 0 0 0 0 0 0 0 0 0 0 0 0 0 0 0 0.1 0"/>
<feBlend mode="normal" in2="BackgroundImageFix" result="effect1_dropShadow_9_104"/>
<feBlend mode="normal" in="SourceGraphic" in2="effect1_dropShadow_9_104" result="shape"/>
</filter>
<filter id="filter28_d_9_104" x="287.989" y="22.8027" width="9.0863" height="9.08618" filterUnits="userSpaceOnUse" color-interpolation-filters="sRGB">
<feFlood flood-opacity="0" result="BackgroundImageFix"/>
<feColorMatrix in="SourceAlpha" type="matrix" values="0 0 0 0 0 0 0 0 0 0 0 0 0 0 0 0 0 0 127 0" result="hardAlpha"/>
<feOffset dy="2"/>
<feGaussianBlur stdDeviation="1.5"/>
<feComposite in2="hardAlpha" operator="out"/>
<feColorMatrix type="matrix" values="0 0 0 0 0 0 0 0 0 0 0 0 0 0 0 0 0 0 0.1 0"/>
<feBlend mode="normal" in2="BackgroundImageFix" result="effect1_dropShadow_9_104"/>
<feBlend mode="normal" in="SourceGraphic" in2="effect1_dropShadow_9_104" result="shape"/>
</filter>
<filter id="filter29_d_9_104" x="290.886" y="28.1414" width="12.168" height="11.2483" filterUnits="userSpaceOnUse" color-interpolation-filters="sRGB">
<feFlood flood-opacity="0" result="BackgroundImageFix"/>
<feColorMatrix in="SourceAlpha" type="matrix" values="0 0 0 0 0 0 0 0 0 0 0 0 0 0 0 0 0 0 127 0" result="hardAlpha"/>
<feOffset dy="2"/>
<feGaussianBlur stdDeviation="1.5"/>
<feComposite in2="hardAlpha" operator="out"/>
<feColorMatrix type="matrix" values="0 0 0 0 0 0 0 0 0 0 0 0 0 0 0 0 0 0 0.1 0"/>
<feBlend mode="normal" in2="BackgroundImageFix" result="effect1_dropShadow_9_104"/>
<feBlend mode="normal" in="SourceGraphic" in2="effect1_dropShadow_9_104" result="shape"/>
</filter>
<filter id="filter30_d_9_104" x="51.7565" y="271.583" width="25.7352" height="23.3865" filterUnits="userSpaceOnUse" color-interpolation-filters="sRGB">
<feFlood flood-opacity="0" result="BackgroundImageFix"/>
<feColorMatrix in="SourceAlpha" type="matrix" values="0 0 0 0 0 0 0 0 0 0 0 0 0 0 0 0 0 0 127 0" result="hardAlpha"/>
<feOffset dy="0.829023"/>
<feGaussianBlur stdDeviation="0.621767"/>
<feComposite in2="hardAlpha" operator="out"/>
<feColorMatrix type="matrix" values="0 0 0 0 0 0 0 0 0 0 0 0 0 0 0 0 0 0 0.15 0"/>
<feBlend mode="normal" in2="BackgroundImageFix" result="effect1_dropShadow_9_104"/>
<feBlend mode="normal" in="SourceGraphic" in2="effect1_dropShadow_9_104" result="shape"/>
</filter>
<filter id="filter31_d_9_104" x="244" y="14" width="38.0342" height="27.0352" filterUnits="userSpaceOnUse" color-interpolation-filters="sRGB">
<feFlood flood-opacity="0" result="BackgroundImageFix"/>
<feColorMatrix in="SourceAlpha" type="matrix" values="0 0 0 0 0 0 0 0 0 0 0 0 0 0 0 0 0 0 127 0" result="hardAlpha"/>
<feOffset dy="2"/>
<feGaussianBlur stdDeviation="1.5"/>
<feComposite in2="hardAlpha" operator="out"/>
<feColorMatrix type="matrix" values="0 0 0 0 0 0 0 0 0 0 0 0 0 0 0 0 0 0 0.1 0"/>
<feBlend mode="normal" in2="BackgroundImageFix" result="effect1_dropShadow_9_104"/>
<feBlend mode="normal" in="SourceGraphic" in2="effect1_dropShadow_9_104" result="shape"/>
</filter>
<filter id="filter32_d_9_104" x="0.823243" y="284.605" width="27.4148" height="27.2715" filterUnits="userSpaceOnUse" color-interpolation-filters="sRGB">
<feFlood flood-opacity="0" result="BackgroundImageFix"/>
<feColorMatrix in="SourceAlpha" type="matrix" values="0 0 0 0 0 0 0 0 0 0 0 0 0 0 0 0 0 0 127 0" result="hardAlpha"/>
<feOffset dy="0.784423"/>
<feGaussianBlur stdDeviation="0.588318"/>
<feComposite in2="hardAlpha" operator="out"/>
<feColorMatrix type="matrix" values="0 0 0 0 0 0 0 0 0 0 0 0 0 0 0 0 0 0 0.15 0"/>
<feBlend mode="normal" in2="BackgroundImageFix" result="effect1_dropShadow_9_104"/>
<feBlend mode="normal" in="SourceGraphic" in2="effect1_dropShadow_9_104" result="shape"/>
</filter>
<linearGradient id="paint0_linear_9_104" x1="17.8604" y1="298.039" x2="17.5883" y2="303.794" gradientUnits="userSpaceOnUse">
<stop stop-color="#C4C4C4"/>
<stop offset="1" stop-color="white"/>
</linearGradient>
</defs>
</svg>
