<svg width="100" height="100" viewBox="0 0 100 100" fill="none" xmlns="http://www.w3.org/2000/svg">
<ellipse cx="50.6317" cy="49.3027" rx="44.9577" ry="44.9577" transform="rotate(-5.84551 50.6317 49.3027)" fill="#FA814C"/>
<path d="M50.9922 43.8456C60.6555 47.3511 76.8336 53.2199 76.8336 53.2199C83.398 55.6012 94.8163 59.7433 91.2323 69.6231C87.6482 79.5029 76.2299 75.3608 69.6656 72.9795C69.6656 72.9795 53.4875 67.1107 43.8241 63.6052C34.1608 60.0997 27.0434 57.5178 17.9827 54.2309C11.0023 51.6986 -9.197e-07 47.7074 3.58403 37.8276C7.16805 27.9478 18.8175 32.1738 25.1507 34.4713C25.1507 34.4713 41.3288 40.3401 50.9922 43.8456Z" fill="#F15246"/>
<path d="M56.8513 53.2978C54.9092 63.402 51.658 80.3183 51.658 80.3183C50.3387 87.1822 48.044 99.1214 38.5865 97.3037C29.1289 95.486 31.4236 83.5467 32.7429 76.6828C32.7429 76.6828 35.9941 59.7666 37.9362 49.6623C39.8782 39.5581 41.3086 32.116 43.1295 22.6419C44.5323 15.343 46.7434 3.83872 56.201 5.65645C65.6585 7.47418 63.3173 19.6551 62.0446 26.2773C62.0446 26.2773 58.7933 43.1936 56.8513 53.2978Z" fill="#F15246"/>
<path d="M55.6011 39.9718C65.3912 43.5233 81.7815 49.469 81.7815 49.469C88.4319 51.8816 100 56.078 96.8994 64.6252C93.7988 73.1723 82.2308 68.9758 75.5803 66.5633C75.5803 66.5633 59.19 60.6175 49.3999 57.066C39.6099 53.5146 32.3991 50.8988 23.2196 47.5688C16.1476 45.0033 5.00104 40.9598 8.10162 32.4126C11.2022 23.8655 23.0044 28.1469 29.4207 30.4745C29.4207 30.4745 45.811 36.4203 55.6011 39.9718Z" fill="#FDAF77"/>
<path d="M63.5944 48.4816C61.7104 58.2885 58.5562 74.707 58.5562 74.707C57.2764 81.369 55.0502 92.957 46.1224 91.2418C37.1946 89.5267 39.4207 77.9387 40.7006 71.2768C40.7006 71.2768 43.8547 54.8582 45.7388 45.0513C47.6228 35.2443 49.0104 28.0212 50.777 18.8258C52.1379 11.7416 54.283 0.57588 63.2108 2.29101C72.1386 4.00615 69.8674 15.8287 68.6326 22.2561C68.6326 22.2561 65.4784 38.6746 63.5944 48.4816Z" fill="#FDAF77"/>
</svg>
