<svg width="214" height="57" viewBox="0 0 214 57" fill="none" xmlns="http://www.w3.org/2000/svg">
<circle cx="27.6218" cy="28.352" r="24.5264" transform="rotate(-5.84551 27.6218 28.352)" fill="#FA814C"/>
<path d="M27.8185 25.3749C33.0903 27.2873 41.9161 30.489 41.9161 30.489C45.4973 31.7881 51.7265 34.0479 49.7712 39.4377C47.816 44.8276 41.5868 42.5679 38.0056 41.2688C38.0056 41.2688 29.1798 38.0671 23.908 36.1547C18.6362 34.2423 14.7534 32.8337 9.81035 31.0406C6.00222 29.6591 -5.01737e-07 27.4817 1.95525 22.0919C3.91049 16.702 10.2658 19.0075 13.7208 20.2608C13.7208 20.2608 22.5467 23.4625 27.8185 25.3749Z" fill="#F15246"/>
<path d="M31.0149 30.5315C29.9554 36.0438 28.1817 45.2724 28.1817 45.2724C27.462 49.0169 26.2102 55.5304 21.0506 54.5387C15.8911 53.547 17.143 47.0336 17.8627 43.2891C17.8627 43.2891 19.6364 34.0605 20.6959 28.5482C21.7553 23.0359 22.5357 18.9759 23.529 13.8074C24.2944 9.82548 25.5006 3.54941 30.6601 4.54107C35.8196 5.53272 34.5424 12.178 33.8481 15.7907C33.8481 15.7907 32.0744 25.0192 31.0149 30.5315Z" fill="#F15246"/>
<path d="M30.3329 23.2616C35.6738 25.1991 44.6154 28.4428 44.6154 28.4428C48.2435 29.7589 54.5544 32.0483 52.8629 36.7111C51.1714 41.374 44.8605 39.0846 41.2324 37.7685C41.2324 37.7685 32.2908 34.5248 26.9499 32.5873C21.6089 30.6498 17.6752 29.2228 12.6673 27.4061C8.80924 26.0065 2.7283 23.8006 4.41981 19.1378C6.11131 14.4749 12.5499 16.8106 16.0503 18.0804C16.0503 18.0804 24.9919 21.3241 30.3329 23.2616Z" fill="#FDAF77"/>
<path d="M34.6936 27.9041C33.6657 33.2542 31.945 42.2112 31.945 42.2112C31.2468 45.8456 30.0323 52.1674 25.1618 51.2317C20.2913 50.296 21.5057 43.9742 22.2039 40.3399C22.2039 40.3399 23.9247 31.3828 24.9525 26.0327C25.9803 20.6826 26.7373 16.742 27.7011 11.7255C28.4435 7.8608 29.6137 1.76939 34.4843 2.70507C39.3548 3.64075 38.1157 10.0905 37.4421 13.5969C37.4421 13.5969 35.7214 22.5539 34.6936 27.9041Z" fill="#FDAF77"/>
<rect x="61.7819" y="0.183208" width="1.17552" height="56.8168" fill="black"/>
<path d="M81.428 33.9281C79.9614 33.9281 78.5276 33.7529 77.1266 33.4027C75.7257 33.0306 74.6093 32.5709 73.7774 32.0236L75.4849 28.3461C76.2729 28.8495 77.2251 29.2655 78.3415 29.5938C79.4579 29.9003 80.5524 30.0535 81.6251 30.0535C83.7922 30.0535 84.8757 29.5172 84.8757 28.4446C84.8757 27.9411 84.5802 27.5799 83.9892 27.361C83.3982 27.1421 82.4897 26.956 81.2639 26.8028C79.8191 26.5839 78.6261 26.3322 77.6848 26.0476C76.7436 25.763 75.9227 25.2596 75.2222 24.5372C74.5436 23.8148 74.2043 22.786 74.2043 21.4507C74.2043 20.3343 74.5217 19.3492 75.1565 18.4955C75.8132 17.6199 76.7545 16.9413 77.9803 16.4597C79.2281 15.9781 80.6947 15.7373 82.3803 15.7373C83.628 15.7373 84.8648 15.8796 86.0907 16.1642C87.3384 16.4269 88.3672 16.799 89.1772 17.2806L87.4697 20.9253C85.9155 20.0497 84.219 19.6119 82.3803 19.6119C81.2858 19.6119 80.4649 19.7651 79.9176 20.0716C79.3704 20.3781 79.0967 20.7721 79.0967 21.2537C79.0967 21.8009 79.3923 22.184 79.9833 22.4029C80.5743 22.6218 81.5156 22.8298 82.8071 23.0268C84.2519 23.2676 85.4339 23.5302 86.3533 23.8148C87.2727 24.0775 88.0717 24.57 88.7503 25.2924C89.4289 26.0148 89.7682 27.0217 89.7682 28.3132C89.7682 29.4077 89.4399 30.3819 88.7831 31.2356C88.1264 32.0893 87.1633 32.7569 85.8936 33.2385C84.6459 33.6982 83.1574 33.9281 81.428 33.9281ZM110.233 24.8984C110.233 24.964 110.2 25.4237 110.134 26.2775H96.7703C97.0111 27.372 97.5803 28.2366 98.4778 28.8714C99.3753 29.5063 100.492 29.8237 101.827 29.8237C102.746 29.8237 103.556 29.6923 104.257 29.4296C104.979 29.1451 105.647 28.7073 106.26 28.1162L108.985 31.0714C107.321 32.9758 104.892 33.9281 101.696 33.9281C99.7036 33.9281 97.9414 33.545 96.4091 32.7788C94.8768 31.9908 93.6948 30.9072 92.8629 29.5281C92.0311 28.1491 91.6152 26.5839 91.6152 24.8327C91.6152 23.1034 92.0202 21.5492 92.8301 20.1701C93.6619 18.7691 94.7893 17.6856 96.2121 16.9194C97.6569 16.1314 99.2658 15.7373 101.039 15.7373C102.768 15.7373 104.333 16.1095 105.734 16.8537C107.135 17.598 108.23 18.6706 109.018 20.0716C109.828 21.4507 110.233 23.0596 110.233 24.8984ZM101.072 19.6119C99.9116 19.6119 98.9374 19.9402 98.1494 20.597C97.3614 21.2537 96.8798 22.1512 96.7046 23.2894H105.406C105.231 22.173 104.749 21.2865 103.961 20.6298C103.173 19.9512 102.21 19.6119 101.072 19.6119ZM124.38 15.7373C126.569 15.7373 128.331 16.394 129.667 17.7075C131.024 19.0209 131.702 20.9691 131.702 23.5521V33.6654H126.58V24.3402C126.58 22.9392 126.274 21.8994 125.661 21.2208C125.048 20.5203 124.161 20.1701 123.001 20.1701C121.71 20.1701 120.681 20.5751 119.915 21.385C119.148 22.173 118.765 23.3551 118.765 24.9312V33.6654H113.643V9.30163H118.765V17.8388C119.444 17.1602 120.265 16.6458 121.228 16.2955C122.191 15.9234 123.242 15.7373 124.38 15.7373ZM154.142 16V33.6654H149.283V31.5639C148.604 32.3301 147.794 32.9211 146.853 33.337C145.912 33.7311 144.894 33.9281 143.799 33.9281C141.479 33.9281 139.64 33.2604 138.283 31.9251C136.926 30.5898 136.247 28.6088 136.247 25.9819V16H141.369V25.2267C141.369 28.0724 142.562 29.4953 144.948 29.4953C146.174 29.4953 147.159 29.1013 147.904 28.3132C148.648 27.5033 149.02 26.3103 149.02 24.7342V16H154.142ZM158.888 9.30163H164.01V33.6654H158.888V9.30163ZM177.17 33.9281C175.309 33.9281 173.634 33.545 172.146 32.7788C170.679 31.9908 169.53 30.9072 168.698 29.5281C167.866 28.1491 167.451 26.5839 167.451 24.8327C167.451 23.0815 167.866 21.5163 168.698 20.1373C169.53 18.7582 170.679 17.6856 172.146 16.9194C173.634 16.1314 175.309 15.7373 177.17 15.7373C179.03 15.7373 180.694 16.1314 182.161 16.9194C183.627 17.6856 184.777 18.7582 185.608 20.1373C186.44 21.5163 186.856 23.0815 186.856 24.8327C186.856 26.5839 186.44 28.1491 185.608 29.5281C184.777 30.9072 183.627 31.9908 182.161 32.7788C180.694 33.545 179.03 33.9281 177.17 33.9281ZM177.17 29.7252C178.483 29.7252 179.556 29.2874 180.388 28.4117C181.241 27.5142 181.668 26.3212 181.668 24.8327C181.668 23.3442 181.241 22.1621 180.388 21.2865C179.556 20.389 178.483 19.9402 177.17 19.9402C175.856 19.9402 174.773 20.389 173.919 21.2865C173.065 22.1621 172.638 23.3442 172.638 24.8327C172.638 26.3212 173.065 27.5142 173.919 28.4117C174.773 29.2874 175.856 29.7252 177.17 29.7252Z" fill="black"/>
<path d="M81.2288 42.5156H77.9716L77.2974 44.0479H76.3955L79.1712 37.9186H80.038L82.8224 44.0479H81.903L81.2288 42.5156ZM80.9224 41.8151L79.6002 38.8118L78.278 41.8151H80.9224ZM83.6142 37.5509H84.4548V44.0479H83.6142V37.5509ZM93.0821 39.4072L91.3484 44.0479H90.5428L89.2031 40.528L87.846 44.0479H87.0404L85.3154 39.4072H86.1123L87.4607 43.1022L88.8617 39.4072H89.5709L90.9456 43.1198L92.3291 39.4072H93.0821ZM95.4796 39.3634C96.1217 39.3634 96.6121 39.521 96.9506 39.8362C97.295 40.1514 97.4672 40.6214 97.4672 41.246V44.0479H96.6704V43.435C96.5303 43.651 96.3289 43.8173 96.0663 43.9341C95.8094 44.045 95.503 44.1004 95.1469 44.1004C94.6273 44.1004 94.21 43.9749 93.8948 43.7239C93.5854 43.4729 93.4307 43.1431 93.4307 42.7345C93.4307 42.3259 93.5795 41.999 93.8772 41.7538C94.1749 41.5028 94.6478 41.3773 95.2957 41.3773H96.6266V41.2109C96.6266 40.849 96.5216 40.5717 96.3114 40.3791C96.1013 40.1865 95.7919 40.0902 95.3833 40.0902C95.1089 40.0902 94.8404 40.1369 94.5777 40.2303C94.315 40.3178 94.0932 40.4375 93.9123 40.5893L93.562 39.9588C93.8014 39.7662 94.0874 39.6202 94.4201 39.521C94.7528 39.4159 95.106 39.3634 95.4796 39.3634ZM95.287 43.4525C95.608 43.4525 95.8853 43.3824 96.1188 43.2423C96.3523 43.0964 96.5216 42.8921 96.6266 42.6294V41.9815H95.3307C94.6186 41.9815 94.2625 42.2208 94.2625 42.6995C94.2625 42.933 94.353 43.1168 94.5339 43.2511C94.7149 43.3854 94.9659 43.4525 95.287 43.4525ZM103.044 39.4072L100.794 44.512C100.595 44.9848 100.362 45.3175 100.093 45.5102C99.8304 45.7028 99.5123 45.7991 99.1387 45.7991C98.911 45.7991 98.6892 45.7612 98.4732 45.6853C98.2631 45.6152 98.088 45.5102 97.9479 45.3701L98.3069 44.7396C98.5462 44.9673 98.8235 45.0811 99.1387 45.0811C99.343 45.0811 99.5123 45.0257 99.6465 44.9147C99.7866 44.8097 99.9121 44.6258 100.023 44.3631L100.172 44.0391L98.123 39.4072H98.9986L100.618 43.1198L102.221 39.4072H103.044ZM105.099 44.1004C104.72 44.1004 104.355 44.0508 104.005 43.9516C103.655 43.8465 103.38 43.7152 103.182 43.5576L103.532 42.8921C103.736 43.038 103.985 43.1548 104.276 43.2423C104.568 43.3299 104.863 43.3737 105.161 43.3737C105.896 43.3737 106.264 43.1635 106.264 42.7432C106.264 42.6031 106.214 42.4922 106.115 42.4105C106.016 42.3288 105.89 42.2704 105.739 42.2354C105.593 42.1945 105.383 42.1507 105.108 42.1041C104.735 42.0457 104.428 41.9785 104.189 41.9027C103.955 41.8268 103.754 41.6984 103.585 41.5174C103.415 41.3364 103.331 41.0825 103.331 40.7556C103.331 40.3353 103.506 39.9997 103.856 39.7487C104.206 39.4918 104.676 39.3634 105.266 39.3634C105.575 39.3634 105.885 39.4013 106.194 39.4772C106.503 39.5531 106.757 39.6553 106.956 39.7837L106.597 40.4492C106.217 40.204 105.771 40.0814 105.257 40.0814C104.901 40.0814 104.63 40.1398 104.443 40.2565C104.256 40.3733 104.163 40.528 104.163 40.7206C104.163 40.8724 104.215 40.992 104.32 41.0796C104.425 41.1672 104.554 41.2314 104.705 41.2722C104.863 41.3131 105.082 41.3598 105.362 41.4123C105.736 41.4765 106.036 41.5466 106.264 41.6225C106.497 41.6925 106.696 41.8151 106.859 41.9902C107.023 42.1653 107.105 42.4105 107.105 42.7257C107.105 43.146 106.924 43.4817 106.562 43.7327C106.206 43.9778 105.718 44.1004 105.099 44.1004ZM110.507 39.4072H111.347V44.0479H110.507V39.4072ZM110.927 38.5141C110.763 38.5141 110.626 38.4615 110.515 38.3565C110.41 38.2514 110.358 38.123 110.358 37.9712C110.358 37.8194 110.41 37.691 110.515 37.5859C110.626 37.475 110.763 37.4196 110.927 37.4196C111.09 37.4196 111.225 37.4721 111.33 37.5772C111.441 37.6764 111.496 37.8019 111.496 37.9537C111.496 38.1113 111.441 38.2455 111.33 38.3565C111.225 38.4615 111.09 38.5141 110.927 38.5141ZM115.43 39.3634C116.02 39.3634 116.487 39.5356 116.831 39.88C117.181 40.2186 117.356 40.7177 117.356 41.3773V44.0479H116.516V41.4736C116.516 41.0241 116.408 40.6856 116.192 40.4579C115.976 40.2303 115.667 40.1164 115.264 40.1164C114.808 40.1164 114.449 40.2507 114.187 40.5192C113.924 40.7819 113.793 41.1613 113.793 41.6575V44.0479H112.952V39.4072H113.758V40.1077C113.927 39.8683 114.155 39.6845 114.441 39.556C114.733 39.4276 115.062 39.3634 115.43 39.3634ZM121.386 37.9186H123.969C124.617 37.9186 125.192 38.0471 125.694 38.3039C126.196 38.5608 126.584 38.9227 126.859 39.3897C127.139 39.8508 127.279 40.382 127.279 40.9833C127.279 41.5845 127.139 42.1186 126.859 42.5856C126.584 43.0468 126.196 43.4058 125.694 43.6626C125.192 43.9195 124.617 44.0479 123.969 44.0479H121.386V37.9186ZM123.917 43.2861C124.413 43.2861 124.848 43.1898 125.221 42.9972C125.601 42.8045 125.893 42.536 126.097 42.1916C126.301 41.8414 126.403 41.4386 126.403 40.9833C126.403 40.528 126.301 40.1281 126.097 39.7837C125.893 39.4334 125.601 39.162 125.221 38.9694C124.848 38.7767 124.413 38.6804 123.917 38.6804H122.262V43.2861H123.917ZM132.692 41.7538C132.692 41.818 132.686 41.9027 132.674 42.0077H128.909C128.962 42.4164 129.14 42.7462 129.443 42.9972C129.753 43.2423 130.135 43.3649 130.59 43.3649C131.145 43.3649 131.591 43.1781 131.93 42.8045L132.394 43.3474C132.184 43.5926 131.921 43.7794 131.606 43.9078C131.297 44.0362 130.949 44.1004 130.564 44.1004C130.074 44.1004 129.639 44.0012 129.259 43.8027C128.88 43.5984 128.585 43.3153 128.375 42.9534C128.171 42.5915 128.069 42.1829 128.069 41.7275C128.069 41.2781 128.168 40.8724 128.366 40.5104C128.571 40.1485 128.848 39.8683 129.198 39.6699C129.554 39.4656 129.954 39.3634 130.398 39.3634C130.841 39.3634 131.235 39.4656 131.58 39.6699C131.93 39.8683 132.201 40.1485 132.394 40.5104C132.592 40.8724 132.692 41.2868 132.692 41.7538ZM130.398 40.0726C129.995 40.0726 129.656 40.1952 129.382 40.4404C129.113 40.6856 128.956 41.0066 128.909 41.4036H131.886C131.839 41.0125 131.679 40.6943 131.405 40.4492C131.136 40.1981 130.8 40.0726 130.398 40.0726ZM137.88 39.4072L135.849 44.0479H134.991L132.959 39.4072H133.835L135.428 43.1285L137.057 39.4072H137.88ZM142.73 41.7538C142.73 41.818 142.725 41.9027 142.713 42.0077H138.948C139 42.4164 139.178 42.7462 139.482 42.9972C139.791 43.2423 140.174 43.3649 140.629 43.3649C141.184 43.3649 141.63 43.1781 141.969 42.8045L142.433 43.3474C142.223 43.5926 141.96 43.7794 141.645 43.9078C141.335 44.0362 140.988 44.1004 140.603 44.1004C140.112 44.1004 139.677 44.0012 139.298 43.8027C138.919 43.5984 138.624 43.3153 138.414 42.9534C138.209 42.5915 138.107 42.1829 138.107 41.7275C138.107 41.2781 138.206 40.8724 138.405 40.5104C138.609 40.1485 138.887 39.8683 139.237 39.6699C139.593 39.4656 139.993 39.3634 140.436 39.3634C140.88 39.3634 141.274 39.4656 141.618 39.6699C141.969 39.8683 142.24 40.1485 142.433 40.5104C142.631 40.8724 142.73 41.2868 142.73 41.7538ZM140.436 40.0726C140.034 40.0726 139.695 40.1952 139.421 40.4404C139.152 40.6856 138.994 41.0066 138.948 41.4036H141.925C141.878 41.0125 141.718 40.6943 141.443 40.4492C141.175 40.1981 140.839 40.0726 140.436 40.0726ZM143.898 37.5509H144.738V44.0479H143.898V37.5509ZM148.331 44.1004C147.87 44.1004 147.455 43.9983 147.087 43.794C146.72 43.5897 146.431 43.3095 146.221 42.9534C146.016 42.5915 145.914 42.1829 145.914 41.7275C145.914 41.2722 146.016 40.8665 146.221 40.5104C146.431 40.1485 146.72 39.8683 147.087 39.6699C147.455 39.4656 147.87 39.3634 148.331 39.3634C148.792 39.3634 149.204 39.4656 149.565 39.6699C149.933 39.8683 150.219 40.1485 150.424 40.5104C150.634 40.8665 150.739 41.2722 150.739 41.7275C150.739 42.1829 150.634 42.5915 150.424 42.9534C150.219 43.3095 149.933 43.5897 149.565 43.794C149.204 43.9983 148.792 44.1004 148.331 44.1004ZM148.331 43.3649C148.629 43.3649 148.894 43.2978 149.128 43.1635C149.367 43.0234 149.554 42.8308 149.688 42.5856C149.822 42.3346 149.889 42.0486 149.889 41.7275C149.889 41.4065 149.822 41.1234 149.688 40.8782C149.554 40.6272 149.367 40.4346 149.128 40.3003C148.894 40.166 148.629 40.0989 148.331 40.0989C148.033 40.0989 147.765 40.166 147.525 40.3003C147.292 40.4346 147.105 40.6272 146.965 40.8782C146.831 41.1234 146.763 41.4065 146.763 41.7275C146.763 42.0486 146.831 42.3346 146.965 42.5856C147.105 42.8308 147.292 43.0234 147.525 43.1635C147.765 43.2978 148.033 43.3649 148.331 43.3649ZM154.362 39.3634C154.811 39.3634 155.214 39.4626 155.57 39.6611C155.926 39.8596 156.203 40.1369 156.402 40.4929C156.606 40.849 156.708 41.2605 156.708 41.7275C156.708 42.1945 156.606 42.609 156.402 42.9709C156.203 43.327 155.926 43.6043 155.57 43.8027C155.214 44.0012 154.811 44.1004 154.362 44.1004C154.029 44.1004 153.722 44.0362 153.442 43.9078C153.168 43.7794 152.934 43.5926 152.742 43.3474V45.7466H151.901V39.4072H152.707V40.1427C152.894 39.8858 153.13 39.6932 153.416 39.5648C153.702 39.4305 154.017 39.3634 154.362 39.3634ZM154.292 43.3649C154.589 43.3649 154.855 43.2978 155.088 43.1635C155.328 43.0234 155.515 42.8308 155.649 42.5856C155.789 42.3346 155.859 42.0486 155.859 41.7275C155.859 41.4065 155.789 41.1234 155.649 40.8782C155.515 40.6272 155.328 40.4346 155.088 40.3003C154.855 40.166 154.589 40.0989 154.292 40.0989C154 40.0989 153.734 40.169 153.495 40.3091C153.261 40.4433 153.075 40.633 152.934 40.8782C152.8 41.1234 152.733 41.4065 152.733 41.7275C152.733 42.0486 152.8 42.3346 152.934 42.5856C153.069 42.8308 153.256 43.0234 153.495 43.1635C153.734 43.2978 154 43.3649 154.292 43.3649ZM163.675 39.3634C164.259 39.3634 164.72 39.5327 165.058 39.8713C165.403 40.2098 165.575 40.7118 165.575 41.3773V44.0479H164.734V41.4736C164.734 41.0241 164.629 40.6856 164.419 40.4579C164.215 40.2303 163.92 40.1164 163.535 40.1164C163.109 40.1164 162.77 40.2507 162.519 40.5192C162.268 40.7819 162.143 41.1613 162.143 41.6575V44.0479H161.302V41.4736C161.302 41.0241 161.197 40.6856 160.987 40.4579C160.783 40.2303 160.488 40.1164 160.103 40.1164C159.676 40.1164 159.338 40.2507 159.087 40.5192C158.836 40.7819 158.71 41.1613 158.71 41.6575V44.0479H157.87V39.4072H158.675V40.0989C158.845 39.8596 159.066 39.6786 159.341 39.556C159.615 39.4276 159.927 39.3634 160.278 39.3634C160.64 39.3634 160.961 39.4364 161.241 39.5823C161.521 39.7282 161.737 39.9413 161.889 40.2215C162.064 39.953 162.306 39.7428 162.616 39.5911C162.931 39.4393 163.284 39.3634 163.675 39.3634ZM171.342 41.7538C171.342 41.818 171.336 41.9027 171.324 42.0077H167.559C167.611 42.4164 167.79 42.7462 168.093 42.9972C168.402 43.2423 168.785 43.3649 169.24 43.3649C169.795 43.3649 170.241 43.1781 170.58 42.8045L171.044 43.3474C170.834 43.5926 170.571 43.7794 170.256 43.9078C169.946 44.0362 169.599 44.1004 169.214 44.1004C168.723 44.1004 168.289 44.0012 167.909 43.8027C167.53 43.5984 167.235 43.3153 167.025 42.9534C166.821 42.5915 166.718 42.1829 166.718 41.7275C166.718 41.2781 166.818 40.8724 167.016 40.5104C167.22 40.1485 167.498 39.8683 167.848 39.6699C168.204 39.4656 168.604 39.3634 169.047 39.3634C169.491 39.3634 169.885 39.4656 170.23 39.6699C170.58 39.8683 170.851 40.1485 171.044 40.5104C171.242 40.8724 171.342 41.2868 171.342 41.7538ZM169.047 40.0726C168.645 40.0726 168.306 40.1952 168.032 40.4404C167.763 40.6856 167.606 41.0066 167.559 41.4036H170.536C170.489 41.0125 170.329 40.6943 170.054 40.4492C169.786 40.1981 169.45 40.0726 169.047 40.0726ZM174.987 39.3634C175.576 39.3634 176.043 39.5356 176.388 39.88C176.738 40.2186 176.913 40.7177 176.913 41.3773V44.0479H176.072V41.4736C176.072 41.0241 175.965 40.6856 175.749 40.4579C175.533 40.2303 175.223 40.1164 174.82 40.1164C174.365 40.1164 174.006 40.2507 173.743 40.5192C173.481 40.7819 173.349 41.1613 173.349 41.6575V44.0479H172.509V39.4072H173.314V40.1077C173.484 39.8683 173.711 39.6845 173.997 39.556C174.289 39.4276 174.619 39.3634 174.987 39.3634ZM181.078 43.7765C180.955 43.8815 180.804 43.9633 180.623 44.0216C180.442 44.0742 180.255 44.1004 180.062 44.1004C179.595 44.1004 179.233 43.9749 178.977 43.7239C178.72 43.4729 178.591 43.1139 178.591 42.6469V40.0989H177.803V39.4072H178.591V38.3915H179.432V39.4072H180.763V40.0989H179.432V42.6119C179.432 42.8629 179.493 43.0555 179.616 43.1898C179.744 43.3241 179.925 43.3912 180.159 43.3912C180.415 43.3912 180.634 43.3182 180.815 43.1723L181.078 43.7765Z" fill="black"/>
</svg>
