<svg width="43" height="39" viewBox="0 0 43 39" fill="none" xmlns="http://www.w3.org/2000/svg">
<rect x="41.8" y="0.0752811" width="0.38" height="38" fill="black"/>
<circle cx="19.24" cy="19.1903" r="17.0839" transform="rotate(-5.84551 19.24 19.1903)" fill="#FA814C"/>
<path d="M19.377 17.1166C23.0491 18.4487 29.1968 20.6788 29.1968 20.6788C31.6912 21.5837 36.0302 23.1577 34.6683 26.9121C33.3063 30.6664 28.9674 29.0924 26.4729 28.1875C26.4729 28.1875 20.3252 25.9573 16.6532 24.6253C12.9811 23.2932 10.2765 22.312 6.83342 21.063C4.18086 20.1008 -3.49486e-07 18.5841 1.36193 14.8298C2.72386 11.0755 7.15065 12.6813 9.55728 13.5544C9.55728 13.5544 15.705 15.7845 19.377 17.1166Z" fill="#F15246"/>
<path d="M21.6035 20.7084C20.8655 24.5481 19.63 30.9762 19.63 30.9762C19.1287 33.5845 18.2567 38.1214 14.6629 37.4307C11.069 36.74 11.941 32.203 12.4423 29.5948C12.4423 29.5948 13.6778 23.1666 14.4158 19.327C15.1537 15.4874 15.6973 12.6593 16.3892 9.0592C16.9223 6.2856 17.7625 1.91399 21.3564 2.60473C24.9503 3.29547 24.0606 7.92423 23.577 10.4407C23.577 10.4407 22.3415 16.8688 21.6035 20.7084Z" fill="#F15246"/>
<path d="M21.1284 15.6446C24.8486 16.9941 31.0769 19.2535 31.0769 19.2535C33.6041 20.1703 38 21.7649 36.8218 25.0128C35.6435 28.2608 31.2477 26.6661 28.7205 25.7493C28.7205 25.7493 22.4922 23.4899 18.772 22.1404C15.0517 20.7908 12.3117 19.7968 8.82344 18.5314C6.13608 17.5565 1.90039 16.02 3.07861 12.7721C4.25683 9.52418 8.74168 11.1511 11.1799 12.0356C11.1799 12.0356 17.4082 14.295 21.1284 15.6446Z" fill="#FDAF77"/>
<path d="M24.1659 18.8783C23.4499 22.6049 22.2513 28.844 22.2513 28.844C21.765 31.3755 20.9191 35.7789 17.5265 35.1272C14.1339 34.4754 14.9799 30.072 15.4662 27.5405C15.4662 27.5405 16.6648 21.3014 17.3807 17.5748C18.0966 13.8481 18.6239 11.1033 19.2952 7.60909C19.8124 4.91711 20.6275 0.674115 24.0201 1.32587C27.4127 1.97762 26.5496 6.47019 26.0804 8.91259C26.0804 8.91259 24.8818 15.1516 24.1659 18.8783Z" fill="#FDAF77"/>
</svg>
