<svg width="53" height="53" viewBox="0 0 53 53" fill="none" xmlns="http://www.w3.org/2000/svg">
<g filter="url(#filter0_d_10_23)">
<path d="M16.7917 36.8324C26.1305 35.6582 32.6884 34.8336 41.4896 30.0765C42.1007 29.7462 42.4548 29.579 43.041 29.2063C44.7349 28.129 50.1773 18.4607 50.1773 18.4607L38.709 9.78155L31.7866 5.9972L27.2406 1.1024C27.2406 1.1024 18.3996 20.2339 9.64549 30.2345C7.18534 33.045 2.99997 37.113 2.99997 37.113C2.99997 37.113 10.7974 37.5862 16.6388 36.8517L16.7917 36.8324Z" fill="#FFFDFD"/>
<path d="M38.0117 30.8075L20.653 18.3986C20.5264 18.3081 20.3608 18.2788 20.1929 18.3171C20.0249 18.3555 19.8682 18.4584 19.7573 18.6032C19.6464 18.748 19.5903 18.9228 19.6015 19.0892C19.6126 19.2556 19.69 19.3999 19.8166 19.4905L24.5899 22.9027L26.1094 23.9889L28.1883 24.5886L29.6518 26.5212L37.1754 31.8994C37.302 31.9899 37.4675 32.0192 37.6355 31.9808C37.8035 31.9425 37.9601 31.8396 38.0711 31.6948C38.182 31.55 38.238 31.3752 38.2269 31.2088C38.2158 31.0424 38.1384 30.898 38.0117 30.8075Z" fill="#E4E4E4"/>
<path d="M32.4835 28.9457L29.3876 26.3877L28.1882 24.5885L25.7892 23.9889L19.9528 19.9881C19.8122 19.8909 19.7192 19.7402 19.6927 19.5665C19.6663 19.3928 19.7082 19.2089 19.8101 19.0519C19.8654 18.969 19.9364 18.8969 20.0184 18.84C20.1005 18.783 20.1919 18.7426 20.2868 18.7212C20.3815 18.6996 20.4777 18.6971 20.5695 18.714C20.6613 18.7309 20.7468 18.7667 20.8207 18.8193L26.9887 22.7895L29.9874 23.9888L30.5871 25.1883L32.5081 26.9875C32.7858 27.1865 32.7742 27.5482 32.8093 27.8994C32.8444 28.2506 32.7361 28.6153 32.5081 28.9135L32.4835 28.9457Z" fill="#FF6363"/>
<path d="M37.5851 28.9396C39.6123 29.6342 41.4106 30.1267 41.4106 30.1267C41.4106 30.1267 39.3831 31.2305 36.7506 32.3431C34.7587 33.1849 32.3963 33.9962 30.4414 34.5403C25.9141 35.8002 18.2313 36.6414 18.2313 36.6414C18.2313 36.6414 22.1006 33.165 24.6436 31.0385C25.6657 30.1839 26.2581 29.728 27.2743 28.8664C28.1644 28.1118 28.4452 27.3345 29.5315 26.9083C30.7778 26.4195 31.5877 26.7711 32.9588 26.9757C34.3298 27.1803 36.2737 28.4902 37.5851 28.9396Z" fill="url(#paint0_linear_10_23)"/>
<path d="M44.0609 21.9979C44.0609 21.9979 43.414 21.3671 43.0612 21.0231C42.4174 20.3952 41.2676 19.5683 41.2676 19.5683L33.9886 14.6769L30.99 12.8777L25.3507 8.97493C25.2125 8.88297 25.0379 8.85373 24.8652 8.89365C24.6926 8.93357 24.536 9.03938 24.43 9.18779C24.324 9.33621 24.2772 9.51508 24.2999 9.68505C24.3227 9.85502 24.4131 10.0022 24.5512 10.0941L29.2484 11.877L30.3241 13.6699L31.5433 14.6022L40.639 20.8011C40.639 20.8011 41.42 21.4337 41.91 21.8507C42.3615 22.2349 42.5906 22.6292 42.9684 22.8829C43.2528 23.0739 43.4962 23.2828 43.7285 23.2799C43.8989 23.2778 44.1222 23.2545 44.249 23.0991C44.3974 22.9172 44.436 22.836 44.443 22.6648C44.4521 22.4442 44.2182 22.1514 44.0609 21.9979Z" fill="#E4E4E4"/>
<path d="M41.4846 27.9056C41.3749 27.6701 40.0555 26.296 39.5655 25.8769C38.4922 24.9588 38.6041 24.9442 37.8657 24.3191C36.8087 23.4241 34.4467 21.6609 31.9272 19.8207C31.4679 19.4851 29.6656 19.2812 29.6656 19.2812C29.6656 19.2812 29.5352 18.5776 29.0125 18.1298C28.5124 17.7015 27.6291 17.5353 27.2042 17.2301C26.491 16.7176 26.7811 16.1596 26.1888 15.7364C24.6958 14.6696 23.3215 13.6355 23.3215 13.6355C23.1871 13.538 23.0138 13.5018 22.8397 13.5347C22.6655 13.5676 22.5048 13.667 22.3929 13.811C22.281 13.9551 22.2271 14.1319 22.2429 14.3027C22.2588 14.4734 22.3432 14.6241 22.4776 14.7215L27.972 17.9564L29.9874 19.8207C29.9874 19.8207 34.7941 23.3788 37.184 25.1882C37.8008 25.6552 37.9578 26.1119 38.4979 26.6606C38.9933 27.1638 39.68 28.0298 39.68 28.0298C39.8144 28.127 40.2912 29.0345 40.8121 29.107C41.0131 29.135 41.1534 29.1027 41.3394 28.9474C41.5207 28.796 41.66 28.6036 41.6442 28.4329C41.6285 28.2623 41.5942 28.141 41.4846 27.9056Z" fill="#E4E4E4"/>
<path d="M34.4084 16.7538L30.3958 13.7417L28.6029 11.662L26.8288 11.2317L24.5889 10.2186C24.4451 10.1261 24.3472 9.97869 24.3149 9.80596C24.2826 9.63323 24.3184 9.44804 24.415 9.2877C24.4676 9.20306 24.5361 9.12857 24.6162 9.06894C24.6963 9.00931 24.7862 8.96583 24.8804 8.94125C24.9743 8.91649 25.0704 8.91083 25.1627 8.92463C25.255 8.93843 25.3416 8.97138 25.4172 9.02148L26.8288 9.80596L29.0332 10.4428L30.109 11.662L34.1823 14.8549C34.4664 15.0445 34.6522 15.3475 34.6991 15.6973C34.7459 16.0471 34.6498 16.4153 34.4319 16.7209L34.4084 16.7538Z" fill="#FF6363"/>
<path d="M37.0217 25.2423L32.9861 22.1898L31.187 20.9904L28.9721 19.8454L28.1577 18.458L27.5848 17.591L25.3797 16.8434L22.5269 14.7283C22.387 14.6301 22.2951 14.4788 22.2698 14.3049C22.2445 14.131 22.2877 13.9474 22.3907 13.7911C22.4466 13.7087 22.5181 13.637 22.6005 13.5806C22.6829 13.5243 22.7746 13.4845 22.8697 13.4637C22.9645 13.4427 23.0607 13.441 23.1524 13.4585C23.2441 13.476 23.3293 13.5124 23.4029 13.5655L26.6009 15.9121L27.7694 16.377L28.9722 16.4997L29.3877 17.9917L29.9875 19.1912L31.8321 19.6415L36.8723 23.3358C37.1485 23.5367 37.322 23.8469 37.3547 24.1984C37.3873 24.5498 37.2765 24.9137 37.0465 25.2104L37.0217 25.2423Z" fill="#FF6363"/>
</g>
<defs>
<filter id="filter0_d_10_23" x="0.538546" y="-0.820475" width="53.5176" height="57.8475" filterUnits="userSpaceOnUse" color-interpolation-filters="sRGB">
<feFlood flood-opacity="0" result="BackgroundImageFix"/>
<feColorMatrix in="SourceAlpha" type="matrix" values="0 0 0 0 0 0 0 0 0 0 0 0 0 0 0 0 0 0 127 0" result="hardAlpha"/>
<feOffset dy="1.64095"/>
<feGaussianBlur stdDeviation="1.23071"/>
<feComposite in2="hardAlpha" operator="out"/>
<feColorMatrix type="matrix" values="0 0 0 0 0 0 0 0 0 0 0 0 0 0 0 0 0 0 0.15 0"/>
<feBlend mode="normal" in2="BackgroundImageFix" result="effect1_dropShadow_10_23"/>
<feBlend mode="normal" in="SourceGraphic" in2="effect1_dropShadow_10_23" result="shape"/>
</filter>
<linearGradient id="paint0_linear_10_23" x1="34.3423" y1="25.8576" x2="36.8713" y2="37.6423" gradientUnits="userSpaceOnUse">
<stop stop-color="#C4C4C4"/>
<stop offset="1" stop-color="white"/>
</linearGradient>
</defs>
</svg>
