<svg width="73" height="38" viewBox="0 0 73 38" fill="none" xmlns="http://www.w3.org/2000/svg">
<g filter="url(#filter0_d_11_33)">
<path d="M69.5 16.1561L23.5001 6L16.1077 16.1561L3.58896 24.502L51.2066 32.6878C51.2066 32.6878 59.2109 30.5086 63.0299 27.1239C67.8485 22.8532 69.5 16.1561 69.5 16.1561Z" fill="white"/>
<path d="M48.6909 17.4473C48.9663 17.6539 49.349 17.5531 49.5455 17.2221C49.742 16.8911 49.6781 16.4553 49.4026 16.2487C49.1272 16.0421 48.7445 16.143 48.548 16.4739C48.3515 16.8049 48.4154 17.2407 48.6909 17.4473Z" fill="#3F3D56"/>
<path d="M27.3635 14.0871C27.6389 14.2937 28.0215 14.1928 28.2181 13.8618C28.4146 13.5308 28.3506 13.0951 28.0752 12.8885C27.7997 12.6819 27.4171 12.7827 27.2206 13.1137C27.0241 13.4447 27.088 13.8805 27.3635 14.0871Z" fill="#3F3D56"/>
<path d="M36.5361 12.2438C36.8115 12.4504 37.1941 12.3496 37.3907 12.0186C37.5872 11.6876 37.5232 11.2518 37.2478 11.0452C36.9723 10.8386 36.5897 10.9395 36.3932 11.2705C36.1966 11.6015 36.2606 12.0372 36.5361 12.2438Z" fill="#3F3D56"/>
<path d="M36.6022 22.9541C36.6808 23.1347 37.0002 23.1354 37.3157 22.9557C37.6312 22.7759 37.8232 22.4838 37.7447 22.3031C37.6661 22.1225 37.3467 22.1218 37.0312 22.3015C36.7157 22.4813 36.5237 22.7735 36.6022 22.9541Z" fill="#3F3D56"/>
<path d="M56.1366 18.61C56.412 18.8166 56.7947 18.7158 56.9912 18.3848C57.1877 18.0538 57.1238 17.618 56.8483 17.4114C56.5729 17.2048 56.1902 17.3057 55.9937 17.6367C55.7972 17.9677 55.8611 18.4035 56.1366 18.61Z" fill="#3F3D56"/>
<path d="M37.0834 22.7553L37.8627 18.8588L37.7283 18.0825L36.5211 11.7239L27.673 13.4825L27.6901 13.1529L36.7407 11.354L38.0721 18.0825L38.1744 18.703L37.551 22.2098L43.5515 19.0147L49.1751 16.8525L49.2044 16.8561L56.5419 17.7917L56.4559 18.1242L49.1475 17.1921L44.0191 19.0926L37.0834 22.7553Z" fill="#3F3D56"/>
<path d="M25.3161 14.3389L29.6801 14.8844L27.8878 17.534L20.5624 25.0932L15.2632 24.4698L23.7575 16.9106L25.3161 14.3389Z" fill="#FF6363"/>
<path d="M47.2143 18.3134L51.6562 18.0796C51.6562 18.0796 50.4495 20.1693 49.708 21.1747C47.2681 24.483 42.3826 28.7338 42.3826 28.7338L37.0834 28.1104L46.2791 19.7161L47.2143 18.3134Z" fill="#FF6363"/>
<path d="M54.7734 19.3265L58.2802 19.5603C58.2802 19.5603 55.5172 24.3943 54.3058 25.8726C51.8962 28.8132 48.0715 29.6911 48.0715 29.6911L44.0191 29.1456C44.0191 29.1456 49.0917 26.6098 51.1107 24.7816C53.312 22.7882 54.7734 19.3265 54.7734 19.3265Z" fill="#FF6363"/>
<path d="M33.7325 23.145L39.1875 23.7684L35.9145 27.7428L30.0698 26.7077L33.7325 23.145Z" fill="#FF6363"/>
<path d="M33.0311 13.4038L36.6938 13.8714L34.6676 18.3871L27.3423 26.1843L21.8872 25.327L30.6932 17.7679L33.0311 13.4038Z" fill="#FF6363"/>
</g>
<defs>
<filter id="filter0_d_11_33" x="0.588959" y="-1" width="74.3593" height="42.2622" filterUnits="userSpaceOnUse" color-interpolation-filters="sRGB">
<feFlood flood-opacity="0" result="BackgroundImageFix"/>
<feColorMatrix in="SourceAlpha" type="matrix" values="0 0 0 0 0 0 0 0 0 0 0 0 0 0 0 0 0 0 127 0" result="hardAlpha"/>
<feOffset dy="2"/>
<feGaussianBlur stdDeviation="1.5"/>
<feComposite in2="hardAlpha" operator="out"/>
<feColorMatrix type="matrix" values="0 0 0 0 0 0 0 0 0 0 0 0 0 0 0 0 0 0 0.15 0"/>
<feBlend mode="normal" in2="BackgroundImageFix" result="effect1_dropShadow_11_33"/>
<feBlend mode="normal" in="SourceGraphic" in2="effect1_dropShadow_11_33" result="shape"/>
</filter>
</defs>
</svg>
