<svg width="53" height="51" viewBox="0 0 53 51" fill="none" xmlns="http://www.w3.org/2000/svg">
<g filter="url(#filter0_d_11_34)">
<path d="M33.2891 38.7713L25.5304 45.7489L4.36183 28.4618L27.4754 4.03467L26.721 6.59804L32.9729 16.3419C32.9729 16.3419 37.4356 21.2002 41.2705 22.2941C43.9005 23.0442 48.2667 22.6035 48.2667 22.6035L40.4503 30.7376L33.9355 34.9177L33.2891 38.7713Z" fill="white"/>
<path d="M18.1194 30.1292L19.8751 29.3566C19.6215 28.0813 19.7053 26.6976 20.0992 25.3625C20.4932 24.0274 21.1885 22.8106 22.0973 21.8658C23.0061 20.921 24.0875 20.2907 25.2047 20.0547C26.322 19.8186 27.4979 19.9954 28.4471 20.5476L29.5006 18.6514C28.235 17.9151 26.6331 17.4693 25.1434 17.784C23.6538 18.0988 22.2119 18.9391 21.0002 20.1988C19.7885 21.4586 18.8614 23.081 18.3361 24.8611C17.8108 26.6412 17.7812 28.4287 18.1194 30.1292Z" fill="#E6E6E6"/>
<path d="M29.7172 18.7911L28.702 20.6767C29.7846 21.2645 30.5637 22.3281 30.8948 23.6706C31.226 25.0131 30.9937 26.6577 30.4099 28.0923L32.1193 28.5265C32.8973 26.6134 33.099 24.8256 32.6573 23.0357C32.4764 22.3023 31.9018 21.5193 31.5336 20.9288C31.0032 20.078 30.5693 19.2538 29.7172 18.7911Z" fill="#895757"/>
<path d="M26.4517 32.2746C25.7341 32.6004 24.9964 32.7864 24.2807 32.8219C23.565 32.8575 22.8852 32.7419 22.2803 32.4817C21.6753 32.2215 21.157 31.8219 20.7549 31.3056C20.3529 30.7893 20.0749 30.1665 19.937 29.4728L18.1156 30.2998C18.4088 31.7744 19.1733 32.9945 20.3012 33.7881C21.4292 34.5816 22.8637 34.9087 24.4027 34.7231C25.9416 34.5376 28.5572 32.2746 28.5572 32.2746C28.5572 32.2746 30.6168 30.8359 30.8099 30.6223C31.1944 30.1969 31.8562 29.3434 32.049 28.6198L30.3865 28.2126C30.0065 29.0928 29.4534 29.9176 28.7707 30.6223C28.088 31.3271 27.2943 31.8926 26.4517 32.2746Z" fill="#FF6363"/>
</g>
<defs>
<filter id="filter0_d_11_34" x="-2.47578" y="-0.82526" width="57.1076" height="55.2804" filterUnits="userSpaceOnUse" color-interpolation-filters="sRGB">
<feFlood flood-opacity="0" result="BackgroundImageFix"/>
<feColorMatrix in="SourceAlpha" type="matrix" values="0 0 0 0 0 0 0 0 0 0 0 0 0 0 0 0 0 0 127 0" result="hardAlpha"/>
<feOffset dy="1.65052"/>
<feGaussianBlur stdDeviation="1.23789"/>
<feComposite in2="hardAlpha" operator="out"/>
<feColorMatrix type="matrix" values="0 0 0 0 0 0 0 0 0 0 0 0 0 0 0 0 0 0 0.15 0"/>
<feBlend mode="normal" in2="BackgroundImageFix" result="effect1_dropShadow_11_34"/>
<feBlend mode="normal" in="SourceGraphic" in2="effect1_dropShadow_11_34" result="shape"/>
</filter>
</defs>
</svg>
