<svg width="34" height="26" viewBox="0 0 34 26" fill="none" xmlns="http://www.w3.org/2000/svg">
<g filter="url(#filter0_d_11_37)">
<path d="M11.8368 6.1695L18.8576 4.46956L22.5309 8.45725L23.8381 17.2599L8.73149 20.6853L7.48742 10.2952L7.35327 6.77675L8.52173 5.46033L11.8368 6.1695Z" fill="url(#paint0_linear_11_37)"/>
<path d="M15.2099 4.34579L22.5827 3.74621L24.2152 7.04394L30.092 16.0755L15.1851 19.2672L12.9015 16.9128L10.0449 16.3017L7.38903 10.3779L4.04721 5.05602L10.2061 4.04702L15.2099 4.34579Z" fill="url(#paint1_linear_11_37)"/>
<path d="M7.76459 4.42311L3.98275 5.08831L6.71849 9.31309L7.76459 4.42311Z" fill="#EBEBEB" fill-opacity="0.16"/>
<path d="M15.9567 10.2402L4.33758 5.22729L6.46547 6.0671L9.77532 6.77516L19.1798 9.55619L23.1995 12.3391L24.881 13.4679L29.3472 15.9617L15.9567 10.2402Z" fill="url(#paint2_radial_11_37)"/>
</g>
<defs>
<filter id="filter0_d_11_37" x="-2" y="-1" width="37.2856" height="30.8531" filterUnits="userSpaceOnUse" color-interpolation-filters="sRGB">
<feFlood flood-opacity="0" result="BackgroundImageFix"/>
<feColorMatrix in="SourceAlpha" type="matrix" values="0 0 0 0 0 0 0 0 0 0 0 0 0 0 0 0 0 0 127 0" result="hardAlpha"/>
<feOffset dy="2"/>
<feGaussianBlur stdDeviation="1.5"/>
<feComposite in2="hardAlpha" operator="out"/>
<feColorMatrix type="matrix" values="0 0 0 0 0 0 0 0 0 0 0 0 0 0 0 0 0 0 0.05 0"/>
<feBlend mode="normal" in2="BackgroundImageFix" result="effect1_dropShadow_11_37"/>
<feBlend mode="normal" in="SourceGraphic" in2="effect1_dropShadow_11_37" result="shape"/>
</filter>
<linearGradient id="paint0_linear_11_37" x1="22.1185" y1="7.90832" x2="12.9315" y2="18.9881" gradientUnits="userSpaceOnUse">
<stop stop-color="#878585"/>
<stop offset="0.0001" stop-color="#878585"/>
<stop offset="1" stop-color="#E9E9E9"/>
</linearGradient>
<linearGradient id="paint1_linear_11_37" x1="16.5124" y1="8.54038" x2="31.9441" y2="7.90263" gradientUnits="userSpaceOnUse">
<stop stop-color="#C4C4C4"/>
<stop offset="1" stop-color="#F2F2F2"/>
</linearGradient>
<radialGradient id="paint2_radial_11_37" cx="0" cy="0" r="1" gradientUnits="userSpaceOnUse" gradientTransform="translate(5.23231 10.0338) rotate(-26.6361) scale(18.7278 49.678)">
<stop stop-color="#B6B6B6"/>
<stop offset="1" stop-color="#C4C4C4" stop-opacity="0"/>
</radialGradient>
</defs>
</svg>
