<?xml version="1.0" standalone="no"?><svg preserveAspectRatio="none" xmlns="http://www.w3.org/2000/svg" viewBox="0 0 1440 320"><path fill="rgba(251, 251, 251, 255)" fill-opacity="1" d="M0,128L6.2,112C12.3,96,25,64,37,74.7C49.2,85,62,139,74,154.7C86.2,171,98,149,111,160C123.1,171,135,213,148,224C160,235,172,213,185,170.7C196.9,128,209,64,222,53.3C233.8,43,246,85,258,90.7C270.8,96,283,64,295,69.3C307.7,75,320,117,332,144C344.6,171,357,181,369,197.3C381.5,213,394,235,406,208C418.5,181,431,107,443,106.7C455.4,107,468,181,480,192C492.3,203,505,149,517,149.3C529.2,149,542,203,554,192C566.2,181,578,107,591,96C603.1,85,615,139,628,181.3C640,224,652,256,665,261.3C676.9,267,689,245,702,202.7C713.8,160,726,96,738,106.7C750.8,117,763,203,775,218.7C787.7,235,800,181,812,144C824.6,107,837,85,849,80C861.5,75,874,85,886,112C898.5,139,911,181,923,186.7C935.4,192,948,160,960,160C972.3,160,985,192,997,192C1009.2,192,1022,160,1034,138.7C1046.2,117,1058,107,1071,106.7C1083.1,107,1095,117,1108,112C1120,107,1132,85,1145,90.7C1156.9,96,1169,128,1182,133.3C1193.8,139,1206,117,1218,117.3C1230.8,117,1243,139,1255,160C1267.7,181,1280,203,1292,197.3C1304.6,192,1317,160,1329,165.3C1341.5,171,1354,213,1366,197.3C1378.5,181,1391,107,1403,112C1415.4,117,1428,203,1434,245.3L1440,288L1440,0L1433.8,0C1427.7,0,1415,0,1403,0C1390.8,0,1378,0,1366,0C1353.8,0,1342,0,1329,0C1316.9,0,1305,0,1292,0C1280,0,1268,0,1255,0C1243.1,0,1231,0,1218,0C1206.2,0,1194,0,1182,0C1169.2,0,1157,0,1145,0C1132.3,0,1120,0,1108,0C1095.4,0,1083,0,1071,0C1058.5,0,1046,0,1034,0C1021.5,0,1009,0,997,0C984.6,0,972,0,960,0C947.7,0,935,0,923,0C910.8,0,898,0,886,0C873.8,0,862,0,849,0C836.9,0,825,0,812,0C800,0,788,0,775,0C763.1,0,751,0,738,0C726.2,0,714,0,702,0C689.2,0,677,0,665,0C652.3,0,640,0,628,0C615.4,0,603,0,591,0C578.5,0,566,0,554,0C541.5,0,529,0,517,0C504.6,0,492,0,480,0C467.7,0,455,0,443,0C430.8,0,418,0,406,0C393.8,0,382,0,369,0C356.9,0,345,0,332,0C320,0,308,0,295,0C283.1,0,271,0,258,0C246.2,0,234,0,222,0C209.2,0,197,0,185,0C172.3,0,160,0,148,0C135.4,0,123,0,111,0C98.5,0,86,0,74,0C61.5,0,49,0,37,0C24.6,0,12,0,6,0L0,0Z"></path></svg>