<svg width="18" height="17" viewBox="0 0 18 17" fill="none" xmlns="http://www.w3.org/2000/svg">
<rect x="17.6" y="0.840004" width="0.0001" height="16" fill="black"/>
<ellipse cx="8.10108" cy="8.88843" rx="7.19323" ry="7.19323" transform="rotate(-5.84551 8.10108 8.88843)" fill="#FA814C"/>
<path d="M8.15875 8.01529C9.70488 8.57617 12.2934 9.51518 12.2934 9.51518C13.3437 9.89619 15.1706 10.5589 14.5972 12.1397C14.0237 13.7205 12.1968 13.0577 11.1465 12.6767C11.1465 12.6767 8.55799 11.7377 7.01186 11.1768C5.46573 10.6159 4.32694 10.2028 2.87723 9.67694C1.76036 9.27178 -1.47152e-07 8.63319 0.573444 7.05242C1.14689 5.47165 3.0108 6.14781 4.02412 6.5154C4.02412 6.5154 6.61261 7.45441 8.15875 8.01529Z" fill="#F15246"/>
<path d="M9.0962 9.52765C8.78548 11.1443 8.26527 13.8509 8.26527 13.8509C8.0542 14.9491 7.68704 16.8594 6.17383 16.5686C4.66063 16.2778 5.02778 14.3675 5.23886 13.2693C5.23886 13.2693 5.75906 10.5627 6.06978 8.94598C6.38051 7.3293 6.60937 6.13856 6.90071 4.6227C7.12517 3.45487 7.47894 1.6142 8.99215 1.90503C10.5054 2.19587 10.1308 4.14482 9.92713 5.20438C9.92713 5.20438 9.40692 7.91097 9.0962 9.52765Z" fill="#F15246"/>
<path d="M8.89618 7.39549C10.4626 7.96372 13.085 8.91505 13.085 8.91505C14.1491 9.30105 16 9.97249 15.5039 11.34C15.0078 12.7076 13.1569 12.0361 12.0929 11.6501C12.0929 11.6501 9.47041 10.6988 7.90399 10.1306C6.33758 9.56233 5.18386 9.14381 3.71514 8.61101C2.58362 8.20053 0.800171 7.55357 1.29626 6.18602C1.79236 4.81848 3.68071 5.50351 4.70732 5.87592C4.70732 5.87592 7.32977 6.82725 8.89618 7.39549Z" fill="#FDAF77"/>
<path d="M10.1751 8.75705C9.87369 10.3262 9.36903 12.9531 9.36903 12.9531C9.16425 14.019 8.80807 15.8731 7.37961 15.5987C5.95116 15.3243 6.30735 13.4702 6.51212 12.4043C6.51212 12.4043 7.01679 9.77732 7.31823 8.20821C7.61967 6.63909 7.8417 5.48338 8.12434 4.01213C8.34209 2.87866 8.6853 1.09214 10.1138 1.36656C11.5422 1.64098 11.1788 3.53259 10.9812 4.56097C10.9812 4.56097 10.4766 7.18794 10.1751 8.75705Z" fill="#FDAF77"/>
</svg>
